<svg width="233" height="236" viewBox="0 0 233 236" fill="none" xmlns="http://www.w3.org/2000/svg">
<path d="M170 160H217V111H191.438L170 131.95V160Z" fill="#FFD100"/>
<path d="M179 147H209V117H193.275L179 130.231V147Z" fill="#283037"/>
<path d="M181 142H206V119H195.501L181 132.255V142Z" fill="#75D1F2"/>
<path d="M201.519 142H204L191.718 123L190.136 124.423L201.519 142ZM196.414 142H198.893L188.582 126.134L187 127.556L196.414 142Z" fill="white"/>
<rect width="73" height="36" rx="3" transform="matrix(1 0 0 -1 152 187)" fill="#FFD100"/>
<circle cx="19" cy="19" r="19" transform="matrix(1 0 0 -1 171 196)" fill="#283037"/>
<circle cx="13" cy="13" r="13" transform="matrix(1 0 0 -1 176 189)" fill="#49565E"/>
<path d="M207.97 185L18.5345 9L16 11.7292L202.5 185H207.97ZM227 178.107L224.467 180.837L43.8599 13.0383L48.0478 11.8486L227 178.107Z" fill="#FFA23B"/>
<path d="M225 179.882L224.153 180.788L43.3486 13.5357L44.1956 12.6301L225 179.882ZM202.944 185L14.847 11L14 11.9076L201.116 185H202.944Z" fill="#FFA23B"/>
<path d="M189.73 173L187 170.418L199.271 157L202 159.58L189.73 173Z" fill="#FFA23B"/>
<path d="M189.987 173L187.17 170.341L208.179 164.395L211 167.049L189.987 173ZM178.817 162.475L176 159.822L188.66 146L191.478 148.656L178.817 162.475Z" fill="#FFA23B"/>
<path d="M179.587 162L176.851 159.346L197.262 153.394L200 156.048L179.587 162ZM168.737 151.477L166 148.82L178.298 135L181.036 137.657L168.737 151.477Z" fill="#FFA23B"/>
<path d="M168.588 151L165.85 148.639L186.263 143.349L189 145.708L168.588 151ZM157.737 141.645L155 139.284L167.298 127L170.036 129.361L157.737 141.645Z" fill="#FFA23B"/>
<path d="M157.987 142L155.169 139.442L176.183 133.712L179 136.268L157.987 142ZM146.815 131.863L144 129.307L156.66 116L159.479 118.556L146.815 131.863Z" fill="#FFA23B"/>
<path d="M147.586 132L144.852 129.346L165.263 123.394L168 126.048L147.586 132ZM136.738 121.474L134 118.819L146.299 105L149.035 107.654L136.738 121.474Z" fill="#FFA23B"/>
<path d="M135.588 121L132.851 118.444L153.262 112.712L156 115.273L135.588 121ZM124.738 110.863L122 108.31L134.3 95L137.037 97.556L124.738 110.863Z" fill="#FFA23B"/>
<path d="M124.988 111L122.17 108.545L143.182 103.033L146 105.494L124.988 111ZM113.818 101.258L111 98.7979L123.661 86L126.479 88.46L113.818 101.258Z" fill="#FFA23B"/>
<path d="M113.987 102L111.169 99.3436L132.18 93.3927L135 96.049L113.987 102ZM102.818 91.4755L100 88.8191L112.66 75L115.478 77.6564L102.818 91.4755Z" fill="#FFA23B"/>
<path d="M103.588 91L100.851 88.4418L121.262 82.7107L124 85.2689L103.588 91ZM92.7375 80.8668L90 78.3085L102.299 65L105.037 67.5558L92.7375 80.8668Z" fill="#FFA23B"/>
<path d="M92.5868 81L89.8491 78.4418L110.261 72.7083L113 75.2665L92.5868 81ZM81.7351 70.8643L79 68.3085L91.2972 55L94.0359 57.5558L81.7351 70.8643Z" fill="#FFA23B"/>
<path d="M81.9873 70L79.172 67.5425L100.181 62.0319L103 64.4894L81.9873 70ZM70.818 60.2542L68 57.7967L80.6609 45L83.4809 47.4572L70.818 60.2542Z" fill="#FFA23B"/>
<path d="M70.9875 62L68.1694 59.3459L89.1829 53.3936L92 56.051L70.9875 62ZM59.8191 51.4749L57 48.8198L69.663 35L72.4781 37.6541L59.8191 51.4749Z" fill="#FFA23B"/>
<path d="M59.5884 51L56.8498 48.4432L77.2631 42.7151L80 45.2709L59.5884 51ZM48.7367 40.8665L46 38.3081L58.2998 25L61.0364 27.5587L48.7367 40.8665Z" fill="#FFA23B"/>
<path d="M48.5871 40L45.8506 37.5401L66.2606 32.0326L69 34.4897L48.5871 40ZM37.7374 30.255L35 27.797L47.2986 15L50.0362 17.4599L37.7374 30.255Z" fill="#FFA23B"/>
<path d="M38.2937 30L35.5169 27.5092L56.2221 21.9284L59 24.4163L38.2937 30ZM19.4204 13.0697L16 10L45.2149 12.0536L49.3812 15.788L19.4204 13.0697Z" fill="#FFA23B"/>
<path d="M23.7789 44.4624L25 44.4197L23.6669 11L22.4465 11.0397L23.7789 44.4624ZM9.33524 44.9516L10.5535 44.911L9.22033 11.4871L8 11.5297L9.33524 44.9516ZM17.277 68L18.4973 67.9588L17.6201 45.9886L16.3998 46.0293L17.277 68Z" fill="#3C474E"/>
<path d="M24.7349 43L25 51.8581L17.8367 59L10.2657 52.5242L10 43.6661L24.7349 43Z" fill="#D36227"/>
<ellipse cx="10.5" cy="9.5" rx="10.5" ry="9.5" transform="matrix(1 0 0 -1 6 21)" fill="#FFA23B"/>
<ellipse cx="9.5" cy="8.5" rx="9.5" ry="8.5" transform="matrix(1 0 0 -1 8 19)" fill="#3C474E"/>
<ellipse cx="8.5" cy="9" rx="8.5" ry="9" transform="matrix(1 0 0 -1 10 18)" fill="#AFCFD6"/>
<path d="M24.6486 40L25 49.7924L16.8544 55L8.35333 50.4157L8 40.6236L24.6486 40Z" fill="#FFA23B"/>
<path d="M12.7503 82.7071C14.0179 85.0457 16.56 86.6001 19.439 86.4955C23.4559 86.3506 26.5943 83.0398 26.4484 79.0992C26.2979 75.1563 22.9211 72.0808 18.9049 72.2258C18.4251 72.2437 17.9482 72.3074 17.481 72.4159L17.4754 72.2781H17.4715L17.1659 64.1046L20.0306 64L20.2483 69.792C25.018 70.303 28.8134 74.1652 28.9932 79.0089C29.1932 84.3256 24.9564 88.7986 19.5326 88.9935C15.2193 89.1479 11.4627 86.5502 10 82.8069L12.7503 82.7071Z" fill="#FFA23B"/>
<rect width="25" height="33" rx="3" transform="matrix(1 0 0 -1 86 187)" fill="#283037"/>
<rect width="119" height="24" rx="3" transform="matrix(1 0 0 -1 79 216)" fill="#72868D"/>
<path d="M106 208.741H141.706V217H106V208.741ZM143.413 208.741H149.672V217H143.413V208.741ZM151.742 208.741H158V217H151.742V208.741ZM122.293 198H158V207.326H122.293V198Z" fill="#283037"/>
<rect width="138" height="27" rx="3" transform="matrix(1 0 0 -1 95 204)" fill="#FFD100"/>
<path d="M95 177H233V182.641H95V177ZM95 185.694H233V187H95V185.694Z" fill="#FFA23B"/>
<path d="M171 209H228L226.561 204.27C222.61 193.046 211.942 185 199.391 185C185.139 185 173.314 195.373 171 209Z" fill="#FFA23B"/>
<rect width="29" height="18" rx="3" transform="matrix(1 0 0 -1 68 217)" fill="#283037"/>
<path d="M0 167.715V209H97V173.609L84.7209 125H26.9221L0 167.715Z" fill="#FFD100"/>
<path d="M8 209H65L63.5605 204.27C59.6101 193.046 48.9417 185 36.3915 185C22.1409 185 10.3146 195.373 8 209Z" fill="#FFA23B"/>
<path d="M13 179H62V131H30.8213L13 157.529V179Z" fill="#283037"/>
<path d="M16 173H59V133H34.1676L16 160.188V173Z" fill="#75D1F2"/>
<path d="M40.8557 173H44L25.9616 146L24.5534 148.095L40.8557 173ZM34.3826 173H37.5269L22.4938 151.159L21 153.378L34.3826 173Z" fill="white"/>
<path d="M2 177H6V196.441H2V177ZM2 199.222H6V207H2V199.222Z" fill="#FF422D"/>
<path d="M59 218.698V209.302H58.1415C57.5753 206.795 56.5638 204.461 55.1961 202.365L55.8055 201.764L49.0128 195.119L48.4012 195.721C46.2544 194.383 43.8663 193.393 41.3056 192.838V192H31.6994V192.838C29.1337 193.393 26.7456 194.383 24.6008 195.721L23.9882 195.119L17.1945 201.764L17.8078 202.365C16.4412 204.461 15.4264 206.795 14.8602 209.302H14V218.698H14.8602C15.4264 221.202 16.4412 223.542 17.8078 225.637L17.1945 226.236L23.9882 232.878L24.6008 232.279C26.7456 233.615 29.1337 234.607 31.6994 235.165V236H41.3056V235.165C43.8663 234.607 46.2544 233.615 48.4012 232.279L49.0128 232.878L55.8055 226.236L55.1961 225.637C56.5861 223.511 57.583 221.162 58.1415 218.698H59Z" fill="#283037"/>
<circle cx="14" cy="14" r="14" transform="matrix(1 0 0 -1 22 228)" fill="#49565E"/>
<circle cx="12.5" cy="12.5" r="12.5" transform="matrix(1 0 0 -1 24 226)" fill="#72868D"/>
<rect width="18" height="48" rx="7.2" transform="matrix(1 0 0 -1 68 179)" fill="#283037"/>
<rect width="18" height="40" rx="7.2" transform="matrix(1 0 0 -1 71 173)" fill="#75D1F2"/>
<path d="M221 218.698V209.302H220.141C219.575 206.795 218.561 204.461 217.195 202.365L217.805 201.764L211.015 195.119L210.403 195.721C208.255 194.383 205.864 193.393 203.304 192.838V192H193.696V192.838C191.134 193.393 188.746 194.383 186.6 195.721L185.986 195.119L179.193 201.764L179.806 202.365C178.439 204.461 177.425 206.795 176.86 209.302H176V218.698H176.86C177.425 221.202 178.439 223.542 179.806 225.637L179.193 226.236L185.986 232.878L186.6 232.279C188.746 233.615 191.134 234.607 193.696 235.165V236H203.304V235.165C205.864 234.607 208.255 233.615 210.403 232.279L211.015 232.878L217.805 226.236L217.195 225.637C218.561 223.542 219.575 221.202 220.141 218.698H221Z" fill="#283037"/>
<ellipse cx="14.5" cy="14" rx="14.5" ry="14" transform="matrix(1 0 0 -1 185 228)" fill="#49565E"/>
<circle cx="12.5" cy="12.5" r="12.5" transform="matrix(1 0 0 -1 187 226)" fill="#72868D"/>
</svg>
