<svg width="254" height="156" viewBox="0 0 254 156" fill="none" xmlns="http://www.w3.org/2000/svg">
<path d="M219.56 125.015C198.894 125.015 182.083 108.112 182.083 87.3413C182.083 84.3166 179.649 81.8713 176.643 81.8713C173.836 81.8713 171.555 84.0144 171.261 86.7556L129.125 72.7501L126.609 80.5117L171.774 94.7951C171.989 96.1958 172.27 97.5698 172.603 98.9271L120.584 81.8894L115.904 96.3306L180.484 115.931C189.286 128.053 203.522 135.952 219.56 135.952C222.562 135.952 225 133.503 225 130.485C225 127.464 222.562 125.015 219.56 125.015Z" fill="#FFD100"/>
<path d="M207 89.6262C207 90.6625 206.187 91.5 205.184 91.5H171.316C171.077 91.5006 170.841 91.4525 170.621 91.3586C170.401 91.2646 170.2 91.1267 170.032 90.9526C169.863 90.7785 169.729 90.5718 169.638 90.3442C169.547 90.1165 169.5 89.8726 169.5 89.6262C169.5 88.5899 170.31 87.75 171.316 87.75H205.184C205.666 87.75 206.127 87.9476 206.468 88.2994C206.808 88.6513 207 89.1285 207 89.6262Z" fill="#72868D"/>
<path d="M243.937 129.843L244.672 136.054L243.937 134.776L228.59 131.779L205.47 72.75H195.75L208.504 150.75H253.146L253.5 129.843H243.937Z" fill="#283037"/>
<circle cx="8.625" cy="8.625" r="8.625" transform="matrix(1 0 0 -1 162 98.25)" fill="#49565E"/>
<circle cx="8" cy="8" r="8" transform="matrix(1 0 0 -1 166.5 94.5)" fill="#72868D"/>
<path d="M134.25 98.111V74.6211H117.482L105.199 62.5478L107.994 59.0423C108.433 58.4922 108.33 57.6992 107.773 57.2671C107.504 57.0613 107.163 56.9686 106.824 57.0094C106.486 57.0503 106.178 57.2214 105.967 57.4851L94.9944 71.2546C94.8904 71.3852 94.8137 71.5345 94.7685 71.6942C94.7233 71.8539 94.7107 72.0208 94.7312 72.1853C94.7518 72.3498 94.8051 72.5088 94.8882 72.653C94.9713 72.7972 95.0825 72.924 95.2155 73.0259C95.3476 73.1291 95.4993 73.2055 95.6616 73.2507C95.824 73.2959 95.9938 73.3091 96.1614 73.2894C96.329 73.2697 96.4909 73.2175 96.6378 73.136C96.7847 73.0544 96.9137 72.945 97.0174 72.8141L101.908 66.6807L109.987 74.6211H105.311V87.52H80.9588L69.451 58.8623H45V98.111H134.25ZM65.3753 114.051H110.73V129H65.3753V114.051Z" fill="#283037"/>
<path d="M161.25 117.134C161.25 122.861 156.625 127.5 150.917 127.5C145.209 127.5 140.584 122.861 140.584 117.134C140.584 111.409 145.209 106.766 150.917 106.766C156.625 106.766 161.25 111.409 161.25 117.134ZM123.644 93.456H48.4403L67.2191 10.4329H91.3437L123.644 62.0379V93.456ZM99.3951 0H50.282L31.5 74.3941L50.282 117.01H140.584V65.3754L99.3951 0Z" fill="#FFD100"/>
<path d="M74.7886 80.1961L39.9189 109.446C38.7671 110.518 36.9829 110.518 35.8312 109.446L0.961381 80.196C-1.03332 78.3396 0.280309 75 3.00524 75H72.7448C75.4697 75 76.7833 78.3396 74.7886 80.1961Z" fill="#FFD100"/>
<path d="M26.25 101.25V133.5H77.7828V123.857H98.2969V133.5H149.25V101.25H26.25Z" fill="#FFD100"/>
<path d="M26.25 101.25H149.25V107.056H26.25V101.25ZM95.6553 123.75C95.082 119.947 91.7792 117.019 87.7467 117.019C83.7208 117.019 80.4179 119.947 79.8446 123.75H95.6553Z" fill="#FFA23B"/>
<path d="M73.5 129.455V115.045H72.2112C71.3608 111.199 69.8397 107.616 67.7888 104.4L68.708 103.48L58.5189 93.2887L57.5998 94.2102C54.3372 92.1235 50.7334 90.6262 46.9527 89.7865V88.5H32.544V89.7865C28.7006 90.6402 25.1189 92.1567 21.9002 94.2102L20.9811 93.2887L10.7887 103.48L11.7078 104.4C9.65694 107.616 8.13593 111.199 7.28547 115.045H6V129.455H7.28547C8.13593 133.301 9.65694 136.881 11.7078 140.099L10.7887 141.017L20.9811 151.209L21.9002 150.292C25.1189 152.343 28.7006 153.861 32.544 154.71V156H46.9527V154.71C50.7994 153.861 54.3844 152.343 57.5998 150.292L58.5189 151.209L68.708 141.017L67.7888 140.099C69.8397 136.881 71.3608 133.301 72.2112 129.455H73.5Z" fill="#283037"/>
<ellipse cx="21.75" cy="22.125" rx="21.75" ry="22.125" transform="matrix(1 0 0 -1 18 144.75)" fill="#49565E"/>
<ellipse cx="19.125" cy="19.5" rx="19.125" ry="19.5" transform="matrix(1 0 0 -1 21 141.75)" fill="#72868D"/>
<path d="M147 138.009V128.244H146.129C145.552 125.634 144.521 123.211 143.129 121.03L143.754 120.404L136.846 113.497L136.224 114.124C134.014 112.709 131.571 111.694 129.009 111.127V110.25H119.241V111.127C116.634 111.702 114.207 112.731 112.026 114.124L111.404 113.497L104.496 120.404L105.121 121.03C103.729 123.211 102.698 125.634 102.121 128.244H101.25V138.009H102.121C102.698 140.615 103.729 143.042 105.121 145.222L104.496 145.846L111.404 152.752L112.026 152.131C114.237 153.544 116.68 154.557 119.241 155.125V156H129.009V155.125C131.57 154.556 134.012 153.543 136.224 152.131L136.846 152.752L143.754 145.846L143.129 145.222C144.521 143.042 145.552 140.615 146.129 138.009H147Z" fill="#283037"/>
<ellipse cx="14.625" cy="15" rx="14.625" ry="15" transform="matrix(1 0 0 -1 109.5 148.5)" fill="#49565E"/>
<circle cx="13.125" cy="13.125" r="13.125" transform="matrix(1 0 0 -1 111 146.25)" fill="#72868D"/>
</svg>
