<svg width="318" height="207" viewBox="0 0 318 207" fill="none" xmlns="http://www.w3.org/2000/svg">
<path d="M24.9299 165.939L16.384 149.698L249.127 26.6743L257.677 42.9155L24.9299 165.939Z" fill="#C7CDCC"/>
<path d="M20.6534 157.747L16.384 149.629L248.935 26.6745L253.208 34.7923L20.6534 157.747Z" fill="#D3D9D8"/>
<path d="M114.592 177.855L107.986 176.094L122.977 119.021L129.583 120.785L114.592 177.855Z" fill="#B0B9B8"/>
<path d="M131.817 183.825V206.155H10.2885C7.56046 206.153 4.94467 205.071 3.01562 203.148C1.08656 201.224 0.0019801 198.616 6.08712e-06 195.896V159.069C-0.00146483 157.721 0.263657 156.386 0.780185 155.141C1.29671 153.896 2.05448 152.764 3.01016 151.812C3.96583 150.859 5.10063 150.103 6.34956 149.588C7.59849 149.073 8.93702 148.809 10.2885 148.81H80.382C83.1094 148.813 85.7242 149.895 87.6525 151.818C89.5807 153.742 90.6648 156.349 90.6668 159.069V173.566H121.532C124.258 173.575 126.87 174.659 128.797 176.581C130.723 178.503 131.809 181.107 131.817 183.825Z" fill="#FFA23B"/>
<path d="M74.4731 148.81L16.5979 206.155H10.354C7.60854 206.153 4.97612 205.071 3.0348 203.148C1.09347 201.224 0.0019927 198.616 6.12584e-06 195.896V159.069C-0.00147415 157.721 0.265334 156.386 0.785147 155.141C1.30496 153.896 2.06755 152.764 3.0293 151.812C3.99105 150.859 5.13307 150.103 6.38994 149.588C7.64681 149.073 8.99386 148.809 10.354 148.81H74.4731Z" fill="#FFD100"/>
<path d="M117.667 117.215L120.647 123.49H132.316L143.733 103.382L117.667 117.215Z" fill="#6F7A7A"/>
<path d="M257.677 55.719H318V3.58784H257.677V55.719ZM261.115 7.06229H314.561V52.2445H261.115V7.06229Z" fill="#B0B9B8"/>
<path d="M285.977 5.82208H289.7V57.2085H285.977V5.82208Z" fill="#B0B9B8"/>
<path d="M257.677 52.74H318V61.6768H257.677V52.74Z" fill="#75D1F2"/>
<path d="M259.192 19.5369H316.033V22.9507H259.192V19.5369ZM257.773 0.608765H318V6.44564H257.773V0.608765ZM250.974 0.608765H257.773V10.2156H250.974V0.608765Z" fill="#B0B9B8"/>
<path d="M249.485 10.2906H257.677V52.7402H249.485V10.2906Z" fill="#6F7A7A"/>
</svg>
