<svg width="1440" height="102" viewBox="0 0 1440 102" fill="none" xmlns="http://www.w3.org/2000/svg">
<g filter="url(#filter0_d_1_152)">
<mask id="mask0_1_152" style="mask-type:alpha" maskUnits="userSpaceOnUse" x="0" y="0" width="1440" height="94">
<rect width="1440" height="94" fill="#D9D9D9"/>
</mask>
<g mask="url(#mask0_1_152)">
<rect x="237.948" y="-888.5" width="69" height="1345" transform="rotate(30 237.948 -888.5)" fill="#FFEE32"/>
<rect x="297.704" y="-854" width="69" height="1345" transform="rotate(30 297.704 -854)" fill="#202020"/>
<rect x="357.459" y="-819.5" width="68" height="1345" transform="rotate(30 357.459 -819.5)" fill="#FFEE32"/>
<rect x="416.349" y="-785.5" width="69" height="1345" transform="rotate(30 416.349 -785.5)" fill="#202020"/>
<rect x="476.105" y="-751" width="69" height="1345" transform="rotate(30 476.105 -751)" fill="#FFEE32"/>
<rect x="535.861" y="-716.5" width="68" height="1345" transform="rotate(30 535.861 -716.5)" fill="#202020"/>
<rect x="594.75" y="-682.5" width="69" height="1345" transform="rotate(30 594.75 -682.5)" fill="#FFEE32"/>
<rect x="654.506" y="-648" width="69" height="1345" transform="rotate(30 654.506 -648)" fill="#202020"/>
<rect x="-59.0988" y="-1060" width="69" height="1345" transform="rotate(30 -59.0988 -1060)" fill="#202020"/>
<rect x="0.656982" y="-1025.5" width="68" height="1345" transform="rotate(30 0.656982 -1025.5)" fill="#FFEE32"/>
<rect x="59.5468" y="-991.5" width="69" height="1345" transform="rotate(30 59.5468 -991.5)" fill="#202020"/>
<rect x="119.302" y="-957" width="69" height="1345" transform="rotate(30 119.302 -957)" fill="#FFEE32"/>
<rect x="179.058" y="-922.5" width="68" height="1345" transform="rotate(30 179.058 -922.5)" fill="#202020"/>
<rect x="714.262" y="-613.5" width="68" height="1345" transform="rotate(30 714.262 -613.5)" fill="#FFEE32"/>
<rect x="773.152" y="-579.5" width="69" height="1345" transform="rotate(30 773.152 -579.5)" fill="#202020"/>
<rect x="832.907" y="-545" width="69" height="1345" transform="rotate(30 832.907 -545)" fill="#FFEE32"/>
<rect x="892.663" y="-510.5" width="69" height="1345" transform="rotate(30 892.663 -510.5)" fill="#202020"/>
<rect x="951.553" y="-476.5" width="69" height="1345" transform="rotate(30 951.553 -476.5)" fill="#FFEE32"/>
<rect x="1011.31" y="-442" width="69" height="1345" transform="rotate(30 1011.31 -442)" fill="#202020"/>
<rect x="1071.06" y="-407.5" width="69" height="1345" transform="rotate(30 1071.06 -407.5)" fill="#FFEE32"/>
<rect x="1130.82" y="-373" width="68" height="1345" transform="rotate(30 1130.82 -373)" fill="#202020"/>
<rect x="1189.71" y="-339" width="69" height="1345" transform="rotate(30 1189.71 -339)" fill="#FFEE32"/>
<rect x="1249.47" y="-304.5" width="69" height="1345" transform="rotate(30 1249.47 -304.5)" fill="#202020"/>
<rect x="1309.22" y="-270" width="68" height="1345" transform="rotate(30 1309.22 -270)" fill="#FFEE32"/>
<rect x="1368.11" y="-236" width="69" height="1345" transform="rotate(30 1368.11 -236)" fill="#202020"/>
<rect x="1427.87" y="-201.5" width="69" height="1345" transform="rotate(30 1427.87 -201.5)" fill="#FFEE32"/>
<rect x="1487.62" y="-167" width="68" height="1345" transform="rotate(30 1487.62 -167)" fill="#202020"/>
<rect x="1546.51" y="-133" width="69" height="1345" transform="rotate(30 1546.51 -133)" fill="#FFEE32"/>
<rect x="1606.27" y="-98.5" width="69" height="1345" transform="rotate(30 1606.27 -98.5)" fill="#202020"/>
<rect x="1666.02" y="-64" width="68" height="1345" transform="rotate(30 1666.02 -64)" fill="#FFEE32"/>
<rect x="1724.91" y="-30" width="69" height="1345" transform="rotate(30 1724.91 -30)" fill="#202020"/>
<rect x="1784.67" y="4.5" width="69" height="1345" transform="rotate(30 1784.67 4.5)" fill="#FFEE32"/>
<rect x="1844.43" y="39" width="68" height="1345" transform="rotate(30 1844.43 39)" fill="#202020"/>
<rect x="1903.31" y="73" width="69" height="1345" transform="rotate(30 1903.31 73)" fill="#FFEE32"/>
</g>
</g>
<defs>
<filter id="filter0_d_1_152" x="-4" y="0" width="1448" height="102" filterUnits="userSpaceOnUse" color-interpolation-filters="sRGB">
<feFlood flood-opacity="0" result="BackgroundImageFix"/>
<feColorMatrix in="SourceAlpha" type="matrix" values="0 0 0 0 0 0 0 0 0 0 0 0 0 0 0 0 0 0 127 0" result="hardAlpha"/>
<feOffset dy="4"/>
<feGaussianBlur stdDeviation="2"/>
<feComposite in2="hardAlpha" operator="out"/>
<feColorMatrix type="matrix" values="0 0 0 0 0 0 0 0 0 0 0 0 0 0 0 0 0 0 0.25 0"/>
<feBlend mode="normal" in2="BackgroundImageFix" result="effect1_dropShadow_1_152"/>
<feBlend mode="normal" in="SourceGraphic" in2="effect1_dropShadow_1_152" result="shape"/>
</filter>
</defs>
</svg>
