<svg width="326" height="349" viewBox="0 0 326 349" fill="none" xmlns="http://www.w3.org/2000/svg">
<g clip-path="url(#clip0_31_226)">
<path d="M23.9091 289.551C17.9867 290.081 13.0735 290.347 9.16946 290.347C6.56677 290.347 4.65459 289.736 3.43292 288.516C2.21124 287.295 1.6004 285.384 1.6004 282.783V270.044C1.6004 267.257 2.22453 265.24 3.47276 263.993C4.74754 262.719 6.77923 262.082 9.56783 262.082H23.9091V267.655H11.1613C9.56783 267.655 8.77109 268.451 8.77109 270.044V282.783C8.77109 283.393 8.94371 283.884 9.28897 284.256C9.66078 284.601 10.1255 284.773 10.6833 284.773C11.241 284.773 11.8518 284.773 12.5158 284.773C13.1797 284.747 13.8702 284.72 14.5873 284.694C15.3044 284.667 16.0214 284.641 16.7385 284.614C17.4821 284.588 18.4249 284.535 19.5669 284.455C20.7355 284.375 22.1828 284.282 23.9091 284.176V289.551ZM40.6453 289.949H33.4746V267.655H25.1089V262.082H49.0111V267.655H40.6453V289.949ZM51.8043 262.082H68.5359C71.3245 262.082 73.3429 262.719 74.5911 263.993C75.8659 265.24 76.5033 267.257 76.5033 270.044V274.025C76.5033 276.811 75.8659 278.842 74.5911 280.116C73.3429 281.363 71.3245 281.987 68.5359 281.987H58.975V289.949H51.8043V262.082ZM69.3327 270.044C69.3327 268.451 68.5359 267.655 66.9424 267.655H58.975V276.413H66.9424C68.5359 276.413 69.3327 275.617 69.3327 274.025V270.044ZM98.0138 269.646C98.0138 268.053 97.2171 267.257 95.6236 267.257H88.8513C87.2578 267.257 86.461 268.053 86.461 269.646V282.385C86.461 283.977 87.2578 284.773 88.8513 284.773H95.6236C97.2171 284.773 98.0138 283.977 98.0138 282.385V269.646ZM105.184 282.385C105.184 285.172 104.547 287.202 103.272 288.476C102.024 289.723 100.006 290.347 97.217 290.347H87.2578C84.4692 290.347 82.4375 289.723 81.1627 288.476C79.9145 287.202 79.2904 285.172 79.2904 282.385V269.646C79.2904 266.859 79.9145 264.842 81.1627 263.595C82.4375 262.321 84.4692 261.684 87.2578 261.684H97.217C100.006 261.684 102.024 262.321 103.272 263.595C104.547 264.842 105.184 266.859 105.184 269.646V282.385ZM126.317 289.949V272.83L116.756 289.949H109.187V262.082H116.358V279.2L125.919 262.082H133.488V289.949H126.317ZM119.146 260.091C115.694 260.091 113.967 258.366 113.967 254.916V253.722H119.146V254.717C119.146 255.115 119.279 255.447 119.545 255.712C119.81 255.978 120.142 256.11 120.541 256.11H121.736C122.134 256.11 122.466 255.978 122.732 255.712C122.997 255.447 123.13 255.115 123.13 254.717V253.722H128.309V254.916C128.309 258.366 126.583 260.091 123.13 260.091H119.146ZM151.831 289.949H144.661V267.655H136.295V262.082H160.197V267.655H151.831V289.949ZM185.1 289.949H162.99V262.082H185.1V267.655H170.161V273.029H181.913V278.603H170.161V284.375H185.1V289.949ZM204.412 262.082H212.379L203.416 276.015L212.578 289.949H204.611L199.034 281.191L193.456 289.949H185.489L194.651 276.015L185.688 262.082H193.616L199.034 270.84L204.412 262.082ZM238.876 289.949H231.706V278.603H221.746V289.949H214.576V262.082H221.746V273.029H231.706V262.082H238.876V289.949ZM267.977 289.949H260.807V272.83L251.246 289.949H243.677V262.082H250.847V279.2L260.408 262.082H267.977V289.949ZM293.092 261.684C293.756 261.684 294.951 261.816 296.678 262.082V267.456H295.084C294.686 267.456 294.327 267.589 294.009 267.854C293.69 268.093 293.451 268.358 293.292 268.65L289.507 275.816L297.275 289.949H289.706L283.531 278.603H279.946V289.949H272.775V262.082H279.946V273.029H283.531L287.515 265.466C288.099 264.351 288.817 263.449 289.666 262.759C290.543 262.042 291.685 261.684 293.092 261.684ZM304.638 289.949H296.87L307.427 262.082H315.395L325.951 289.949H318.183L316.39 284.972H306.431L304.638 289.949ZM308.224 279.797H314.598L311.411 270.442L308.224 279.797Z" fill="black"/>
<path d="M81.367 309.677C82.031 309.677 83.2261 309.809 84.9524 310.075V315.449H83.3589C82.9605 315.449 82.602 315.582 82.2833 315.847C81.9646 316.086 81.7255 316.352 81.5662 316.643L77.7817 323.809L85.5499 337.942H77.9809L71.8061 326.596H68.2208V337.942H61.0501V310.075H68.2208V321.023H71.8061L75.7898 313.459C76.3741 312.344 77.0912 311.442 77.941 310.752C78.8174 310.035 79.9594 309.677 81.367 309.677ZM105.859 317.639C105.859 316.046 105.062 315.25 103.469 315.25H96.6965C95.1031 315.25 94.3063 316.046 94.3063 317.639V330.378C94.3063 331.97 95.1031 332.766 96.6965 332.766H103.469C105.062 332.766 105.859 331.97 105.859 330.378V317.639ZM113.03 330.378C113.03 333.165 112.392 335.195 111.118 336.469C109.869 337.716 107.851 338.34 105.062 338.34H95.1031C92.3145 338.34 90.2828 337.716 89.008 336.469C87.7598 335.195 87.1356 333.165 87.1356 330.378V317.639C87.1356 314.852 87.7598 312.835 89.008 311.588C90.2828 310.314 92.3145 309.677 95.1031 309.677H105.062C107.851 309.677 109.869 310.314 111.118 311.588C112.392 312.835 113.03 314.852 113.03 317.639V330.378ZM125.398 332.169C125.265 334.08 124.654 335.593 123.565 336.708C122.476 337.796 121.135 338.34 119.542 338.34C117.948 338.34 116.448 338.207 115.04 337.942V332.567H116.833C117.337 332.567 117.749 332.395 118.068 332.05C118.413 331.705 118.599 331.28 118.626 330.776L119.821 310.075H141.93V337.942H134.76V315.648H126.394L125.398 332.169ZM164.642 317.639C164.642 316.046 163.845 315.25 162.252 315.25H155.479C153.886 315.25 153.089 316.046 153.089 317.639V330.378C153.089 331.97 153.886 332.766 155.479 332.766H162.252C163.845 332.766 164.642 331.97 164.642 330.378V317.639ZM171.813 330.378C171.813 333.165 171.175 335.195 169.9 336.469C168.652 337.716 166.634 338.34 163.845 338.34H153.886C151.097 338.34 149.066 337.716 147.791 336.469C146.543 335.195 145.919 333.165 145.919 330.378V317.639C145.919 314.852 146.543 312.835 147.791 311.588C149.066 310.314 151.097 309.677 153.886 309.677H163.845C166.634 309.677 168.652 310.314 169.9 311.588C171.175 312.835 171.813 314.852 171.813 317.639V330.378ZM199.717 322.416L194.14 332.368H188.563L182.986 322.416V337.942H175.815V310.075H183.384L191.352 324.805L199.319 310.075H206.888V337.942H199.717V322.416ZM235.984 337.942H228.813V326.596H218.855V337.942H211.684V310.075H218.855V321.023H228.813V310.075H235.984V337.942ZM245.764 337.942H237.996L248.552 310.075H256.52L267.077 337.942H259.308L257.516 332.966H247.556L245.764 337.942ZM249.349 327.79H255.723L252.536 318.435L249.349 327.79Z" fill="black"/>
<path d="M218.001 215.951C236.083 215.508 254.045 215.161 272.003 214.962C276.609 214.911 281.212 214.962 285.818 214.913C286.608 214.913 287.013 215.017 287.053 215.96C287.188 219.277 286.924 222.548 285.725 225.667C283.562 231.284 279.32 234.365 273.459 235.164C269.781 235.663 266.076 235.449 262.413 234.741C259.643 234.206 257.544 232.702 256.022 230.364C255.083 228.933 254.258 227.432 253.552 225.875C253.262 225.231 252.93 224.937 252.142 224.968C242.49 225.359 232.837 225.682 223.185 226.074C219.446 226.222 219.444 226.275 219.225 229.957C219.055 232.817 218.499 235.582 217.184 238.141C216.655 239.189 215.948 240.14 215.095 240.949C213.942 242.04 212.678 242.705 210.988 242.601C208.913 242.486 206.835 242.48 204.76 242.584C202.781 242.67 201.256 241.854 199.968 240.498C197.284 237.669 195.763 234.241 195.075 230.448C194.873 229.343 194.524 228.792 193.326 228.998C192.8 229.086 192.244 229.015 191.704 229.015C189.639 229.015 189.664 229.015 189.456 226.905C189.36 225.932 189.807 224.599 189.115 224.081C188.469 223.597 187.216 223.902 186.238 223.891C184.883 223.873 183.527 223.951 182.176 223.864C181.254 223.805 181.03 224.165 181.008 225.003C180.988 226.54 180.653 228.055 180.023 229.458C179.328 230.968 178.303 231.89 176.466 231.789C174.804 231.696 173.127 231.809 171.46 231.884C169.865 231.957 168.517 231.441 167.49 230.247C167.299 230.004 167.051 229.811 166.768 229.685C166.486 229.559 166.176 229.506 165.868 229.528C164.606 229.542 163.342 229.407 162.081 229.418C160.295 229.431 159.117 228.513 158.239 227.08C157.132 225.278 156.641 223.278 156.355 221.21C156.316 220.923 156.448 220.396 156.065 220.423C154.64 220.522 155.056 219.496 155.012 218.793C154.868 216.541 154.758 214.29 154.651 212.036C154.618 211.322 154.488 210.791 153.562 210.963C152.883 211.089 152.077 210.919 152.246 212.1C152.342 213 152.271 213.91 152.038 214.785C151.909 215.345 151.754 215.78 151.024 215.803C150.294 215.825 149.917 215.581 149.769 214.891C149.621 214.201 149.455 213.58 149.326 212.921C149.198 212.262 149.457 211.472 148.51 211.129C148.176 211.01 148.311 210.466 148.288 210.125C148.111 205.799 147.826 201.478 147.868 197.145C147.877 196.932 147.929 196.722 148.019 196.529C148.11 196.335 148.238 196.162 148.396 196.018C148.554 195.874 148.739 195.763 148.94 195.69C149.141 195.618 149.354 195.586 149.568 195.597C149.829 195.617 149.893 195.752 149.893 195.9C149.893 197.054 150.526 196.762 151.221 196.543C156.202 194.982 161.188 193.439 166.18 191.914C166.766 191.737 166.923 191.472 166.954 190.884C167.176 186.695 167.176 186.695 163.064 186.936C162.141 186.991 161.085 187.294 161.2 185.711C161.233 185.248 160.731 185.394 160.456 185.372C159.241 185.273 158.022 185.169 156.809 185.136C156.116 185.116 155.871 184.853 155.86 184.165C155.787 180.106 155.638 176.046 155.844 171.987C155.898 170.952 156.293 169.963 156.966 169.174C181.028 139.283 205.07 109.374 229.092 79.447C229.581 78.8366 230.046 78.3943 230.862 78.5447C231.478 78.6553 231.843 78.3412 232.19 77.8679C234.658 74.5902 237.106 71.2971 239.662 68.0902C240.408 67.1546 240.007 66.9114 239.253 66.4557C230.28 61.0328 220.721 56.9721 210.481 54.7937C179.718 48.256 151.701 54.3668 126.971 73.8737C109.089 87.9818 97.7573 106.445 92.5431 128.626C92.2974 129.669 93.3487 131.025 94.6301 131.182C96.456 131.403 97.7839 132.509 99.0055 133.686C99.8775 134.533 99.8333 135.791 99.6164 136.893C99.26 138.713 99.4836 140.431 99.9904 142.183C101.239 146.505 102.374 150.857 103.589 155.318C104.178 154.595 104.786 154.004 105.722 153.927C106.149 153.874 106.581 153.918 106.988 154.055C107.395 154.193 107.765 154.422 108.071 154.723C108.176 154.81 108.304 154.866 108.44 154.884C108.575 154.903 108.713 154.884 108.839 154.829C109.863 154.526 110.83 154.829 111.716 155.214C112.763 155.656 112.979 155.245 112.966 154.316C112.953 153.474 113.318 152.531 111.995 152.233C111.552 152.131 111.594 151.481 111.585 151.032C111.561 149.705 111.953 148.444 112.267 147.184C112.504 146.23 113.42 146.52 114.099 146.52C114.615 146.52 115.173 146.498 115.241 147.316C115.339 148.48 115.593 149.63 115.722 150.793C115.797 151.474 115.722 152.08 114.965 152.507C114.04 153.036 114.743 153.973 114.613 154.719C114.44 155.683 114.834 156.13 115.819 156.537C120.057 158.306 124.271 160.126 128.244 162.442C128.7 162.709 129.939 162.913 128.722 163.884C128.551 164.019 128.673 164.574 128.722 164.925C129.328 169.389 129.963 173.85 130.539 178.319C130.63 179.023 130.833 179.284 131.535 179.12C131.889 179.051 132.249 179.009 132.61 178.996C136.125 178.722 136.131 178.724 136.764 175.296C137.231 172.772 137.698 170.249 138.13 167.719C138.269 166.907 138.493 166.129 138.044 165.253C137.674 164.532 138.077 163.652 138.307 162.884C139.302 159.655 140.637 156.542 142.291 153.595C143.16 151.946 144.5 150.592 146.139 149.703C146.531 149.481 146.877 149.187 147.157 148.836C149.57 146.031 151.964 143.211 154.426 140.451C154.966 139.845 154.926 139.463 154.507 138.848C153.7 137.665 152.896 136.481 152.67 134.986C152.352 132.872 152.998 131.105 154.848 129.999C156.876 128.829 158.996 127.828 161.187 127.004C162.251 126.584 163.338 126.796 164.383 127.073C166.875 127.736 169.163 128.864 171.578 130.207C170.823 130.8 170.232 131.445 169.499 131.813C167.304 132.918 166.401 134.878 165.848 137.059C165.58 138.096 165.197 139 164.329 139.668C163.666 140.184 163.223 140.816 163.316 141.732C163.38 142.351 162.898 142.692 162.521 143.074C160.394 145.226 158.367 147.482 156.127 149.508C151.579 153.624 149.178 158.852 147.952 164.704C145.884 174.413 144.998 184.335 145.314 194.257C145.613 202.911 145.708 211.574 145.934 220.232C145.956 221.066 145.759 221.524 144.911 221.588C142.952 221.732 141.591 222.621 140.569 224.382C139.768 225.775 138.296 226.527 136.691 226.883C134.272 227.421 131.842 227.509 129.472 226.735C125.451 225.408 123.662 222.208 122.85 218.381C122.569 217.054 122.073 216.639 120.841 216.906C120.796 216.909 120.751 216.909 120.706 216.906C118.689 217.01 118.714 217.01 118.645 219.034C118.517 222.807 117.868 226.467 116.116 229.871C112.765 236.367 106.132 239.978 98.9303 239.257C91.224 238.486 85.8283 233.874 83.7833 226.279C83.2898 224.45 82.8582 222.586 82.9224 220.688C82.9689 219.293 82.4576 219.012 81.2116 219.312C80.1101 219.594 78.9562 219.599 77.852 219.328C76.6658 219.018 76.3825 219.516 76.1833 220.591C75.0125 226.885 69.909 232.273 64.033 233.33C56.0767 234.761 48.5674 231.222 46.3055 221.927C44.3778 214.004 47.4608 206.003 53.9498 202.154C56.9332 200.385 60.2064 199.68 63.6324 199.545C64.2242 199.547 64.8156 199.512 65.403 199.441C62.515 198.239 59.3794 197.751 56.2626 198.021C55.6783 198.063 55.094 198.12 54.5097 198.14C54.1999 198.14 53.8037 198.14 53.7263 197.773C53.6355 197.331 54.0981 197.317 54.357 197.207C57.6104 195.798 60.9833 194.878 64.5597 194.882C65.5975 194.853 66.6359 194.889 67.6692 194.989C68.4682 195.086 68.5545 194.794 68.5324 194.115C68.4151 191.41 68.4018 188.701 68.2314 186.003C68.1561 184.815 68.6497 184.249 69.6921 183.95C71.2973 183.484 72.9629 183.261 74.6341 183.287C75.8292 183.307 75.9377 182.895 75.5636 181.9C75.0723 180.597 74.6894 179.246 74.2778 177.919C74.0565 177.211 73.6271 176.492 74.4504 175.829C74.7071 175.621 74.488 175.236 74.4128 174.944C73.5408 171.442 72.6695 167.942 71.799 164.443C71.7437 164.222 71.7371 163.928 71.591 163.811C69.8625 162.42 70.2277 160.29 69.7031 158.485C69.2636 156.883 68.7285 155.308 68.1008 153.77C66.7928 150.7 64.9205 148.32 61.7269 146.834C57.409 144.824 53.2925 142.378 49.1118 140.086C48.4479 139.726 48.0296 139.62 47.39 140.241C46.2834 141.309 44.6744 141.186 43.4306 140.208C43.0123 139.881 43.0787 139.544 43.1318 139.135C43.3022 137.886 42.7711 136.924 41.8039 136.205C39.7479 134.69 37.6874 133.814 34.9542 134.856C30.4681 136.565 25.8403 137.908 21.0997 139.463C21.425 137.2 21.7305 135.079 22.0691 132.728C19.9312 133.549 17.957 134.252 16.0315 135.066C15.2326 135.402 14.8984 135.258 14.5244 134.484C11.3138 127.849 8.06783 121.228 4.78643 114.619C4.38806 113.821 4.64478 113.566 5.25783 113.184C7.31608 111.892 7.3028 111.872 5.96826 109.842C5.49907 109.125 5.0166 108.418 4.56068 107.694C4.37699 107.398 3.89673 107.084 4.49872 106.73C4.94135 106.469 5.30431 106.067 5.87973 106.65C6.91328 107.721 8.07299 108.665 9.11318 109.727C9.63106 110.255 10.0228 110.273 10.6071 109.864C11.5277 109.218 12.4905 108.625 13.4621 108.059C13.9622 107.767 14.0353 107.533 13.6834 107.033C12.8556 105.856 12.0877 104.633 11.3131 103.419C11.1272 103.125 10.6491 102.802 11.291 102.468C11.6982 102.247 12.0257 101.783 12.5679 102.329C13.6214 103.382 14.7545 104.355 15.7992 105.412C16.3237 105.943 16.7353 106.104 17.3904 105.595C18.5501 104.693 20.6239 104.269 20.8363 103.076C21.0222 102.033 19.462 100.71 18.7604 99.4626C18.528 99.049 17.6693 98.6907 18.3642 98.0272C18.8179 97.5849 19.2783 97.45 19.8382 98.0272C20.874 99.0932 22.0138 100.06 23.0694 101.11C23.5121 101.553 23.8308 101.572 24.3354 101.227C25.3756 100.515 26.4445 99.8385 27.5378 99.2126C28.1332 98.8698 28.246 98.6022 27.8145 98.0073C26.9956 96.8771 26.2652 95.6873 25.5039 94.5129C25.3003 94.1988 24.9152 93.8671 25.5039 93.5265C25.92 93.2876 26.2498 92.8939 26.7809 93.4269C27.8609 94.5151 29.0251 95.5192 30.114 96.5985C30.5566 97.0408 30.9107 97.1248 31.4662 96.7466C32.6923 95.9106 33.9538 95.1189 35.2286 94.3713C35.8173 94.0285 35.8217 93.7498 35.4499 93.2279C34.6664 92.1221 33.9317 90.9919 33.219 89.8441C33.0265 89.5344 32.4422 89.2182 33.1017 88.7382C33.6395 88.3468 34.0202 88.1986 34.5735 88.7803C35.5694 89.8242 36.6981 90.7376 37.7051 91.7704C38.2208 92.3012 38.5904 92.2946 39.1725 91.8876C40.2385 91.1332 41.3469 90.4405 42.4922 89.8131C43.3266 89.3708 43.2248 88.955 42.7644 88.2981C41.8592 87.0131 41.0249 85.6795 40.1927 84.41C41.0116 83.4236 41.6335 83.6381 42.428 84.441C43.5346 85.5468 44.5637 87.3604 45.9425 87.4068C47.2107 87.451 48.5364 85.9781 49.8311 85.1686C51.3803 84.1955 51.3803 84.1933 50.3711 82.6539C49.8023 81.787 49.2158 80.9333 48.6714 80.053C48.4722 79.7323 47.9145 79.3895 48.6249 78.9737C49.1074 78.6907 49.446 78.4031 49.9926 78.9737C51.0505 80.0796 52.2324 81.0704 53.3235 82.1497C53.7174 82.5367 54.0494 82.6473 54.4588 82.2581C57.2496 79.6041 60.6955 79.6881 64.1968 79.8783C70.5574 80.2255 76.8805 80.763 82.9822 82.7822C83.9006 83.0874 84.1906 83.4457 84.1286 84.4719C83.427 96.1782 82.8007 107.887 82.1235 119.593C82.0772 119.965 82.1328 120.342 82.2839 120.685C82.4351 121.027 82.6763 121.323 82.9822 121.539C84.6575 122.902 86.2665 124.346 88.0149 125.852C88.9002 122.725 89.7301 119.708 90.7482 116.747C102.726 81.9529 132.798 55.7911 169.013 49.1097C195.07 44.3038 219.579 48.7713 242.302 62.5212C243.208 63.0697 243.582 62.9171 244.177 62.1297C250.152 54.2164 256.181 46.3385 262.179 38.4384C262.741 37.6975 263.285 37.0606 264.317 37.0009C265.058 36.9566 265.592 36.5209 266.087 35.9282C270.071 31.1975 274.318 26.679 278.016 21.7425C283.35 14.6276 289.363 8.09218 294.87 1.1365C295.611 0.200966 296.361 -0.128565 297.501 0.0439442C301.042 0.579165 304.488 1.37094 307.383 3.69761C308.146 4.31245 308.326 4.93172 308.191 5.90927C307.513 10.8214 306.821 15.7423 307.695 20.7097C307.757 21.1134 307.693 21.5265 307.513 21.8929C306.83 23.4279 306.898 25.0446 306.929 26.6658C307.033 32.0335 307.15 37.399 307.181 42.7667C307.181 43.6513 307.469 44.0937 308.288 44.2684C309.282 44.4696 309.561 45.0535 309.616 46.0731C309.855 50.4853 308.731 54.7671 308.509 59.1219C308.403 61.2163 307.646 62.3642 305.533 62.4947C304.743 62.5455 304.512 62.937 304.481 63.7133C304.426 65.1243 303.895 66.4248 303.257 67.6788C302.89 68.4042 302.545 69.1496 302.613 69.9922C302.667 70.6225 302.706 71.4032 303.525 71.4077C304.189 71.4077 304.426 70.7641 304.51 70.1448C304.645 68.9346 304.997 67.7584 305.55 66.6725C305.918 65.9802 306.265 65.2039 307.243 65.5667C308.184 65.9095 308.292 66.6725 308.014 67.5572C307.531 69.0832 307.914 70.7043 307.509 72.2481C307.303 73.1248 306.971 73.9668 306.524 74.7473C305.252 76.8439 303.439 77.6777 301.434 77.1093C299.039 76.4458 297.939 74.9176 297.972 72.2967C298.006 69.6759 299.017 67.3957 300.117 65.1155C300.358 64.686 300.557 64.2341 300.712 63.7664C301.212 61.8312 300.644 61.2407 298.74 61.6587C296.837 62.0767 296.853 62.07 296.598 60.2034C296.056 56.2224 295.549 52.2414 294.958 48.2847C294.847 47.5372 294.958 46.9578 295.436 46.4336C296.678 45.1066 296.985 43.5429 296.943 41.7382C296.853 36.9588 296.855 32.1728 297.012 27.3956C297.065 25.8298 296.459 24.9628 295.151 24.6863C293.38 24.3037 292.88 23.3217 293.072 21.6651C293.152 20.9817 292.991 20.2718 292.918 19.2832L287.34 25.3543C287.006 25.7192 286.729 26.2588 286.316 26.4136C283.77 27.347 282.5 29.6382 280.831 31.4828C278.076 34.5238 275.429 37.6644 272.709 40.7386C272.229 41.2826 271.903 41.8179 272.112 42.5477C272.333 43.3439 271.784 43.8083 271.377 44.317C265.147 52.2686 258.906 60.21 252.651 68.141C251.967 69.0036 252.142 69.3309 252.912 69.9612C273.227 86.5929 285.791 107.781 290.189 133.701C292.402 146.75 292.001 159.744 289.146 172.66C288.876 173.874 289.357 174.975 289.445 176.132C289.494 176.76 289.571 177.388 289.682 178.007C289.793 178.627 289.633 178.87 288.963 178.978C287.679 179.2 286.484 179.657 285.519 180.843C286.969 180.934 288.261 180.681 289.536 181.042C290.53 181.323 291.047 181.758 291.012 182.911C290.972 184.67 291.025 186.43 291.174 188.183C291.242 189.108 290.923 189.442 290.038 189.599C288.558 189.862 287.068 189.82 285.585 189.855C284.826 189.875 284.589 190.154 284.53 190.879C284.454 191.808 285.072 191.627 285.574 191.658C287.194 191.757 288.821 191.817 290.443 191.954C290.793 191.983 291.55 191.605 291.448 192.357C291.364 193.005 291.548 194.02 290.383 194.075C290.113 194.088 289.841 194.075 289.571 194.075C264.288 193.906 239.009 193.732 213.73 193.555C209.082 193.52 204.434 193.352 199.787 193.279C194.805 193.199 192.483 194.77 190.781 199.39C190.474 200.219 190.184 200.648 189.137 200.661C186.481 200.697 185.178 202.721 185.923 205.503C186.107 206.195 186.041 206.593 185.594 207.159C184.527 208.517 184.582 210.09 185.1 211.66C185.527 212.961 184.215 214.878 182.847 214.907C181.991 214.927 181.13 214.969 180.275 214.927C179.421 214.885 178.79 214.991 178.894 216.015C178.985 216.937 178.967 218.149 180.222 218.187C183.515 218.288 186.813 218.213 190.108 218.22C190.972 218.22 190.704 217.583 190.706 217.158C190.739 212.363 191.149 207.615 192.366 202.962C192.694 201.653 193.184 200.39 193.824 199.202C195.579 196.028 198.501 194.942 201.885 194.953C208.566 194.973 215.246 195.099 221.926 195.205C244.812 195.575 267.701 195.442 290.589 195.648C292.138 195.661 293.889 198.134 293.347 199.556C293.172 200.016 292.729 199.823 292.411 199.832C290.381 199.898 288.35 199.983 286.32 199.952C285.453 199.938 285.136 200.226 285.039 201.057C284.817 202.844 284.534 204.62 284.284 206.319C286.969 206.319 289.627 206.39 292.276 206.286C293.446 206.239 293.774 206.6 293.663 207.701C293.548 208.868 293.497 210.041 293.515 211.213C293.515 212.08 293.11 212.357 292.32 212.503C287.81 213.339 283.246 213.33 278.693 213.325C278.03 213.325 277.777 213.053 277.808 212.474C277.835 211.74 277.472 211.62 276.821 211.622C267.07 211.661 257.319 211.687 247.567 211.702C247.176 211.702 246.58 211.461 246.552 212.206C246.503 213.354 245.746 213.312 244.881 213.341C236.358 213.615 227.839 213.94 219.411 215.446C218.908 215.502 218.425 215.675 218.001 215.951ZM90.4074 197.793C90.5269 197.844 90.6508 197.95 90.7659 197.939C93.373 197.67 96.0049 197.768 98.585 198.229C99.0564 198.317 99.4703 198.142 99.9129 198.034C106.995 196.265 112.999 198.034 117.906 203.473C118.114 203.694 118.196 204.136 118.771 204.079C117.543 200.664 115.184 198.37 112.057 196.822C107.63 194.633 102.923 194.168 98.0826 194.796C95.2785 195.163 92.6272 195.982 90.4074 197.848L90.476 197.802L90.4074 197.793ZM104.472 232.171L104.268 231.91C107.681 229.537 109.16 226.096 109.412 222.115C109.677 217.954 108.79 214.02 105.506 211.193C102.609 208.699 102.124 209.006 99.8731 211.576C95.9359 216.066 95.595 224.136 98.959 229.307C102.547 234.823 108.859 234.836 112.402 229.272C114.535 225.932 115.058 222.234 114.46 218.37C113.969 215.161 112.709 212.321 110.116 210.229C108.234 208.712 106.189 208.292 104.08 208.949C107.179 209.833 109.148 211.89 110.375 214.699C112.017 218.474 112.09 222.314 110.567 226.127C109.421 229 107.61 231.276 104.472 232.171ZM196.839 143.809C198.627 143.698 200.121 143.696 201.59 143.495C203.622 143.216 205.517 142.745 207.23 141.318C210.107 138.919 213.577 137.616 217.344 137.178C220.127 136.888 222.926 136.789 225.723 136.884C235.577 137.105 245.341 138.26 255.063 139.759C260.718 140.63 266.351 141.632 271.884 143.169C272.519 143.323 273.116 143.602 273.643 143.992C274.168 144.381 274.608 144.873 274.94 145.436C275.825 146.945 276.795 148.418 277.651 149.948C277.979 150.532 278.275 150.797 278.992 150.722C281.301 150.483 281.411 150.601 281.714 152.958C281.77 153.315 281.792 153.676 281.783 154.037C281.593 157.061 282.316 160.072 283.859 162.681C283.996 162.902 284.08 163.178 284.189 163.422C284.43 163.919 284.481 164.726 285.271 164.543C285.902 164.397 285.714 163.658 285.78 163.183C287.053 153.137 286.904 143.121 285.059 133.153C280.59 109.006 268.694 89.2668 249.708 73.7387C249.099 73.2411 248.751 73.0952 248.172 73.856C245.381 77.5096 242.524 81.1146 239.673 84.7218C239.29 85.2062 238.991 85.6574 239.188 86.3054C239.452 87.1768 239.045 87.8292 238.524 88.5171C228.8 101.396 219.084 114.282 209.379 127.175L196.839 143.809ZM281.161 164.156C278.859 159.233 276.987 154.425 274.402 149.933C274.066 149.351 273.636 148.827 273.256 148.263C273.043 147.944 272.767 147.672 272.446 147.465C272.123 147.259 271.762 147.121 271.383 147.062C267.887 146.416 264.399 145.7 260.891 145.109C251.06 143.466 241.154 142.328 231.208 141.699C226.89 141.42 222.576 141.194 218.16 141.336C219.364 147.119 221.038 152.708 222.727 158.293C222.899 158.863 223.26 158.901 223.736 158.956C230.522 159.572 237.303 160.197 244.079 160.83C252.569 161.608 261.057 162.382 269.546 163.152C273.311 163.484 277.082 163.802 281.157 164.158L281.161 164.156ZM71.2922 113.066C73.377 111.333 74.7735 109.36 75.8867 107.186C79.2176 100.681 80.3396 93.6525 80.8 86.4624C80.862 85.5158 80.2976 85.4583 79.6934 85.3323C73.8373 84.1114 67.9016 83.9898 61.7822 83.9898C65.2901 93.595 68.7847 103.063 71.2878 113.078L71.2922 113.066ZM84.5712 177.205H84.7925C84.8567 175.856 84.8855 174.506 84.9984 173.162C85.0559 172.467 85.0382 172.056 84.1839 171.81C83.0641 171.485 82.555 170.123 82.9313 169.026C83.3341 167.852 84.2592 167.907 85.1444 168.223C85.9124 168.497 85.7663 167.958 85.7929 167.626C85.939 165.874 86.0695 164.12 86.1713 162.367C86.1817 161.806 86.3234 161.256 86.5852 160.76C86.8468 160.264 87.2215 159.836 87.6785 159.511C88.4398 158.93 89.3384 158.406 89.5553 157.227C89.7456 156.183 91.1864 155.732 91.9212 156.563C92.7843 157.539 93.601 156.979 94.453 156.946C94.9311 156.926 95.1325 156.747 94.993 156.161C94.048 152.222 93.0012 148.329 91.1399 144.691C90.1064 142.685 88.2274 141.681 86.5919 140.367C86.3484 140.173 86.0828 140.25 85.8195 140.316C82.4665 141.183 79.118 142.068 75.754 142.902C75.1697 143.046 75.0148 143.256 75.1653 143.82C76.1419 147.467 77.1069 151.117 78.0601 154.77C78.1486 155.115 78.2261 155.376 78.6488 155.327C79.3968 155.238 79.6624 155.794 79.928 156.313C80.3666 157.249 80.665 158.245 80.8133 159.268C81.1652 161.197 80.6473 163.207 81.0899 165.052C82.0659 169.152 83.3783 173.168 84.5579 177.218L84.5712 177.205ZM93.6452 182.734V182.705C95.7632 182.705 97.8835 182.663 99.9992 182.725C100.865 182.749 100.958 182.44 100.776 181.719C100.256 179.626 99.7757 177.516 99.2755 175.426C99.1095 174.739 99.0099 174.026 99.7049 173.602C100.336 173.217 100.201 172.797 100.046 172.239C99.0476 168.648 98.0539 165.056 97.1288 161.444C96.9296 160.666 96.6419 160.429 95.8584 160.515C93.7537 160.737 91.6401 160.9 89.5332 161.09C88.4421 161.188 88.0105 161.816 87.9419 162.884C87.5435 169.224 87.1186 175.558 86.6671 181.885C86.6096 182.685 86.9216 182.754 87.5524 182.745C89.5841 182.74 91.6135 182.758 93.6408 182.758L93.6452 182.734ZM262.261 200.847V200.794C256.799 200.794 251.339 200.781 245.883 200.794C244.998 200.794 243.67 200.352 243.351 200.993C242.938 201.794 243.818 202.807 244.288 203.667C245.264 205.456 246.574 206.354 248.827 206.321C258.257 206.224 267.692 206.339 277.124 206.376C279.222 206.376 279.827 206.018 280.592 204.103C280.876 203.397 281.006 202.634 281.239 201.907C281.533 200.98 281.155 200.801 280.276 200.801C274.263 200.889 268.258 200.872 262.256 200.872L262.261 200.847ZM55.6075 217.191C55.6075 217.506 55.5898 217.822 55.6075 218.138C55.8642 222.34 58.2035 225.598 61.6516 226.56C66.7884 227.993 71.9207 224.375 72.64 218.819C72.9676 216.289 72.9654 216.324 70.4423 216.236C69.203 216.194 68.1694 216.236 67.231 217.342C66.2285 218.518 64.5752 218.556 63.4067 217.8C62.1098 216.955 61.3683 215.117 61.687 213.531C62.0411 211.762 62.9817 210.844 64.8895 210.596C65.5048 210.517 65.7239 210.276 65.8522 209.712C66.4299 207.212 66.213 206.94 63.6214 207.097C63.2624 207.123 62.9061 207.18 62.5568 207.268C58.4049 208.263 55.5721 212.299 55.6075 217.191ZM81.911 196.227H81.5768C81.4352 193.301 81.2979 190.377 81.1342 187.451C81.1143 187.06 81.2957 186.514 80.53 186.52C77.737 186.542 74.9395 186.416 72.1664 186.923C71.5866 187.029 71.3564 187.232 71.3785 187.885C71.5615 193.379 71.7149 198.874 71.8389 204.37C71.8566 205.085 72.089 205.277 72.7772 205.282C75.4817 205.306 78.1884 205.346 80.8907 205.47C81.8512 205.514 81.953 205.173 81.9309 204.331C81.8712 201.63 81.911 198.93 81.911 196.227ZM186.293 169.411C188.889 166.805 191.231 164.441 193.596 162.097C194.995 160.71 196.252 159.14 198.147 158.35C198.642 158.145 198.718 157.735 198.742 157.244C198.875 154.546 199.001 151.848 199.185 149.154C199.233 148.46 199.021 148.314 198.381 148.362C196.945 148.475 195.504 148.584 194.063 148.584C193.777 148.576 193.494 148.643 193.242 148.779C192.989 148.914 192.777 149.113 192.625 149.355C190.587 152.102 188.517 154.825 186.463 157.558C186.227 157.877 185.939 158.162 185.954 158.622C186.072 162.099 186.173 165.549 186.293 169.411ZM257.463 180.783C253.744 180.622 247.253 180.341 240.764 180.047C239.775 180 239.036 180.153 239.02 181.334C239.002 182.661 239.744 183.778 240.651 183.811C253.231 184.253 265.813 184.671 278.39 185.215C280.044 185.286 280.643 184.525 281.104 183.291C281.531 182.148 281.232 181.743 279.982 181.685C273.408 181.418 266.826 181.157 257.463 180.783ZM188.761 196.021C188.86 195.906 188.951 195.849 188.964 195.776C189.02 195.513 189.053 195.243 189.084 194.975C189.502 191.549 191.361 189.294 194.617 188.163C195.643 187.821 196.703 187.591 197.779 187.478C198.255 187.42 198.587 187.338 198.581 186.688C198.554 183.623 198.58 180.558 198.6 177.494C198.6 177.136 198.654 176.793 198.056 176.831C195.54 177.032 193.012 177.132 190.5 177.373C188.681 177.547 187.909 178.24 187.643 180.067C187.026 184.311 186.66 188.579 187.287 192.857C187.457 194.022 187.621 195.272 188.77 196.021H188.761ZM214.792 143.654C212.948 144.558 211.238 145.447 209.48 146.237C208.511 146.679 208.254 147.192 208.219 148.334C208.155 150.43 209.469 152.757 207.502 154.65C207.369 154.778 207.475 155.17 207.502 155.437C207.619 157.461 207.783 159.483 207.845 161.508C207.876 162.517 208.217 162.583 209.078 162.271C211.229 161.486 213.387 160.692 215.595 160.102C217.001 159.728 217.366 159.217 217.085 157.715C216.206 153.095 215.551 148.429 214.792 143.654ZM236.448 190.428C236.105 188.918 235.107 188.537 233.861 188.438C232.155 188.287 230.457 188.062 228.756 187.88C227.799 187.779 227.244 187.438 227.18 186.308C227.058 184.107 226.801 181.913 226.516 179.724C226.398 178.793 226.848 178.472 227.622 178.445C228.771 178.406 229.92 178.445 231.163 178.445C231.104 178.309 231.028 178.179 230.942 178.058C228.66 175.88 223.4 175.515 220.81 177.351C219.9 177.996 219.409 178.843 219.482 179.987C219.665 183.181 219.858 186.372 220.006 189.566C220.037 190.229 220.228 190.428 220.891 190.256C223.327 189.623 225.808 189.765 228.286 189.928C230.975 190.099 233.671 190.256 236.448 190.433V190.428ZM240.567 207.365C239.992 205.127 239.461 202.999 238.898 200.876C238.794 200.48 238.677 200.144 238.108 200.155C233.607 200.242 229.105 200.309 224.608 200.356C224.117 200.356 223.844 200.485 223.884 201.042C224.017 202.923 224.141 204.807 224.252 206.693C224.281 207.184 224.453 207.378 224.986 207.376C230.152 207.361 235.331 207.369 240.567 207.369V207.365ZM260.506 187.049V187.082C254.461 186.914 248.415 186.772 242.373 186.562C241.176 186.52 241.171 186.96 241.627 187.79C242.189 188.811 242.986 189.353 244.228 189.378C252.892 189.543 261.552 189.762 270.217 189.955C272.789 190.012 275.36 190.048 277.932 190.079C278.667 190.079 279.632 188.871 279.523 187.982C279.415 187.093 278.651 187.566 278.235 187.553C272.324 187.356 266.415 187.223 260.506 187.053V187.049ZM141.618 206.821C141.56 204.912 141.494 202.926 141.138 200.971C140.832 199.29 140.487 197.603 139.504 196.152C139.013 195.422 138.296 194.851 137.486 195.586C135.917 197.008 135.76 199.074 135.273 200.982C135.014 202.006 136.176 201.946 136.461 202.564C136.609 202.886 136.904 203.145 137.041 203.47C138.369 206.485 138.369 209.566 136.444 212.204C135.434 213.578 135.631 214.615 136.103 215.842C136.51 216.908 136.84 218.359 138.225 218.342C139.611 218.324 139.94 216.891 140.33 215.816C141.377 212.943 141.529 209.924 141.618 206.825V206.821ZM113.774 178.954C113.154 172.602 112.535 166.299 111.942 159.993C111.886 159.412 111.72 159.226 111.12 159.279C109.328 159.436 107.531 159.573 105.734 159.64C104.901 159.668 104.808 159.892 105.032 160.672C106.09 164.381 107.095 168.106 108.073 171.839C108.35 172.901 108.644 173.754 109.812 174.272C111.282 174.935 112.127 176.353 112.942 177.716C113.185 178.156 113.28 178.658 113.774 178.967V178.954ZM119.404 181.387C119.625 181.367 119.847 181.367 120.068 181.387C121.372 181.639 121.695 181.219 121.573 179.839C121.131 174.949 120.867 170.043 120.549 165.142C120.407 162.975 120.414 163.001 118.335 162.409C117.51 162.174 116.99 162.137 117.078 163.238C117.123 163.789 116.972 164.423 116.534 164.709C115.469 165.403 115.711 166.348 115.815 167.321C116.235 171.26 116.656 175.201 117.036 179.146C117.253 181.347 117.22 181.349 119.404 181.409V181.387ZM92.8773 135.962C92.3549 134.557 92.6338 133.343 91.6578 132.494C87.503 128.887 83.3555 125.275 79.2154 121.657C78.994 121.471 78.7262 121.026 78.4452 121.325C77.7569 122.055 76.4091 122.17 76.4068 123.574C76.4068 124.138 76.17 124.718 75.9642 125.262C75.6101 126.202 75.7894 126.759 76.7787 127.239C78.7993 128.219 80.7402 129.364 82.7166 130.439L92.8773 135.962ZM196.859 218.408C196.876 221.542 197.069 224.012 197.562 226.443C197.965 228.434 198.392 230.424 199.554 232.127C199.975 232.744 200.603 233.385 201.3 232.633C202.467 231.379 202.407 229.67 202.746 228.093C202.952 227.107 202.13 227.053 201.79 226.571C201.597 226.321 201.427 226.058 201.281 225.78C200.092 223.247 199.884 220.593 200.395 217.875C200.482 217.404 200.632 216.754 200.971 216.548C202.053 215.909 201.721 215.148 201.38 214.321C201.092 213.617 200.856 212.888 200.508 212.213C200.185 211.583 199.844 210.815 198.988 210.864C198.043 210.919 197.841 211.815 197.611 212.509C196.903 214.648 196.887 216.86 196.859 218.408ZM55.437 128.345C57.9977 130.034 60.4786 131.454 62.6962 133.21C64.6881 134.783 66.6113 135.145 68.8444 134.013L69.0857 133.891C68.4372 133.128 67.9592 132.277 68.57 131.328C69.2871 130.222 69.1167 129.201 68.2513 128.4C67.1956 127.427 66.3723 125.863 64.4756 126.447C63.5262 126.739 62.5502 127.071 61.5609 126.94C59.3699 126.653 57.6126 127.862 55.4304 128.351L55.437 128.345ZM305.621 17.9451C305.537 14.9984 305.603 12.0493 305.825 9.10954C306.024 6.77403 305.619 6.17024 303.499 5.19933C302.587 4.81262 301.629 4.54428 300.65 4.40092C300.208 4.32351 299.898 4.33236 299.891 4.95383C299.858 8.14968 299.727 11.3433 300.035 14.5325C300.082 15.0058 300.102 15.4813 300.699 15.7335C302.306 16.408 303.879 17.1578 305.621 17.9451ZM123.344 164.129C123.344 164.572 123.317 165.014 123.344 165.456C123.665 169.902 123.979 174.347 124.329 178.79C124.55 181.582 124.576 181.528 127.381 181.553C128.401 181.564 128.405 181.201 128.301 180.37C127.773 176.219 127.287 172.063 126.843 167.9C126.511 164.764 126.548 164.76 123.503 164.098C123.449 164.101 123.395 164.112 123.344 164.129ZM62.7029 135.807C62.5612 135.236 62.0655 135.13 61.7158 134.896C59.2592 133.241 56.7849 131.613 54.315 129.979C52.2523 128.612 50.6655 129.256 50.1099 131.686C49.9285 132.474 49.8178 133.283 49.5567 134.042C49.3353 134.688 49.5744 134.898 50.1299 135.106C52.104 135.838 54.0671 136.603 56.0235 137.381C56.3956 137.539 56.8121 137.557 57.1965 137.432C59.0091 136.886 60.8438 136.355 62.6896 135.807H62.7029ZM120.892 189.395C123.395 189.574 125.692 189.692 127.974 189.931C128.764 190.012 129.16 189.818 129.326 189.072C129.682 187.48 130.687 186.551 132.238 186.089C133.048 185.813 133.834 185.473 134.589 185.072C135.085 184.828 135.695 184.749 136.125 184.187C134.151 184.357 132.309 184.508 130.466 184.671C128.58 184.839 126.69 184.985 124.811 185.213C124.103 185.299 123.231 185.032 122.766 185.912C122.173 187.022 121.573 188.119 120.878 189.395H120.892ZM181.311 165.204L180.769 165.147C179.125 167.336 177.493 169.535 175.827 171.709C175.249 172.463 175.232 173.325 175.721 173.962C176.48 174.951 177.469 175.767 178.376 176.641C178.483 176.745 178.598 176.904 178.83 176.815C179.209 176.678 181.307 174.325 181.307 173.92C181.304 171.014 181.3 168.11 181.3 165.204H181.311ZM163.36 137.603C163.847 136.041 164.225 134.615 164.985 133.325C165.744 132.036 166.773 131.041 167.939 130.092C165.87 129.028 164.234 128.515 162.849 128.468C160.523 128.391 159.332 129.795 159.812 132.08C160.264 134.292 161.632 135.937 163.349 137.603H163.36ZM198.592 166.091L198.149 165.839L190.808 173.83C193.11 173.65 195.602 173.449 198.094 173.272C198.536 173.241 198.589 173.016 198.589 172.662C198.592 170.47 198.592 168.281 198.592 166.091ZM304.342 26.9776C303.691 27.6544 302.779 27.3359 302.793 28.5413C302.864 33.3074 302.793 38.0735 302.751 42.8419C302.751 43.4877 302.733 43.9145 303.636 43.9101C304.63 43.9101 304.433 43.3107 304.428 42.7578C304.402 38.9803 304.373 35.2028 304.342 31.4253C304.329 30.0452 304.335 28.6629 304.335 26.9798L304.342 26.9776ZM203.529 159.219H203.633C203.633 160.071 203.618 160.925 203.633 161.778C203.684 164.059 203.671 163.99 205.935 163.326C206.82 163.059 207.01 162.663 206.935 161.814C206.789 160.115 206.756 158.408 206.674 156.703C206.572 154.608 206.57 154.639 204.432 154.593C203.744 154.577 203.474 154.708 203.509 155.453C203.567 156.703 203.523 157.963 203.523 159.222L203.529 159.219ZM297.95 26.0664V43.8039C299.006 43.5828 299.533 43.1404 299.5 41.8466C299.371 37.0849 299.369 32.3188 299.393 27.5549C299.389 26.5994 299.099 26.1416 297.944 26.0686L297.95 26.0664ZM167.038 216.86C167.131 219.392 167.244 221.779 168.127 224.041C168.307 224.499 168.492 225.019 169.024 225.147C169.466 225.26 169.688 224.84 169.783 224.523C169.951 223.966 170.551 223.387 169.931 222.796C169.181 222.077 169.059 221.122 168.937 220.206C168.676 218.242 168.273 216.13 169.307 214.385C169.9 213.376 169.776 212.742 169.406 211.903C169.21 211.461 169.028 210.859 168.444 210.924C167.895 210.983 167.764 211.587 167.609 212.049C167.074 213.675 167.114 215.351 167.038 216.86ZM301.821 43.3019C301.821 38.1576 301.792 33.0707 301.848 27.9861C301.848 27.0417 301.266 26.9046 300.699 26.8803C299.96 26.8604 300.316 27.5438 300.316 27.9065C300.316 32.4537 300.369 37.0009 300.332 41.5458C300.325 42.5809 300.591 43.1802 301.821 43.3107V43.3019ZM72.2815 137.957C73.2995 138.463 73.7001 139.695 74.6252 139.505C77.1549 139.014 79.6359 138.271 82.2297 137.603C81.433 136.793 80.7646 136.127 80.1161 135.448C79.8284 135.15 79.5739 135.115 79.1667 135.278C76.9734 136.167 74.7625 137.001 72.2815 137.957ZM158.124 217.112C158.168 218.87 158.219 220.628 158.799 222.316C158.958 222.783 159.117 223.307 159.666 223.44C160.02 223.526 160.248 223.183 160.352 222.909C160.549 222.385 161.016 221.827 160.625 221.263C158.823 218.691 159.009 216.075 160.456 213.469C160.846 212.768 160.35 212.386 160.186 211.879C160.087 211.567 159.828 211.297 159.472 211.395C158.974 211.53 158.865 212.014 158.717 212.439C158.186 213.954 158.19 215.533 158.124 217.112ZM306.152 25.5135C305.429 25.9934 305.046 26.365 305.046 27.1059C305.059 32.4139 305.046 37.7351 305.032 43.0497C305.032 43.4213 304.884 43.8636 305.564 43.8902C306.243 43.9167 306.252 43.5452 306.245 43.0497C306.205 40.0773 306.179 37.1048 306.161 34.1323C306.139 31.3169 306.152 28.5014 306.152 25.5135ZM155.917 141.404L150.309 148.298C153.031 148.203 154.735 146.772 156.243 144.875C157.75 142.977 157.869 143.028 155.915 141.411L155.917 141.404ZM295.899 22.238C297.087 23.4522 298.003 23.5451 298.948 22.7047C299.984 21.7801 300.152 19.9953 299.303 18.9138C298.581 17.9938 297.698 17.9009 296.463 18.6927C297.609 18.9559 298.141 19.6569 297.964 20.7473C297.793 21.7912 297.078 22.2624 295.896 22.2447L295.899 22.238ZM68.4084 140.841C68.1384 140.272 67.8839 139.748 67.6383 139.222C67.4833 138.888 67.3572 138.587 66.8592 138.695C65.2879 139.042 63.7055 139.359 62.1275 139.673C64.1392 140.557 65.9385 142.351 68.4084 140.841ZM74.4327 166.14L74.1428 166.257C74.9616 168.911 75.8181 171.565 76.5773 174.219C76.8163 175.066 77.2124 175.373 78.1265 175.205L74.4327 166.14ZM100.513 166.518L100.236 166.602C100.705 168.5 101.183 170.395 101.633 172.295C101.732 172.719 101.993 172.768 102.327 172.724C102.976 172.638 102.533 172.253 102.465 172.06C101.825 170.194 101.163 168.362 100.508 166.518H100.513ZM118.842 204.421C118.816 204.446 118.771 204.466 118.769 204.49C118.767 204.514 118.8 204.547 118.82 204.578C118.847 204.554 118.889 204.534 118.893 204.508C118.897 204.481 118.855 204.45 118.838 204.421H118.842Z" fill="#020202"/>
<path d="M106.769 149.079C105.884 145.828 104.999 142.577 104.127 139.319C104.084 139.007 104.102 138.691 104.178 138.386C104.932 133.25 103.607 130.404 99.0365 127.876C97.9166 127.257 97.8148 126.69 98.1202 125.578C107.09 92.7371 133.909 66.9093 167.249 59.3742C189.794 54.277 211.372 57.0599 231.984 67.7232C233.452 68.4796 233.445 68.4906 232.409 69.8508C231.863 70.5674 231.303 71.2751 230.772 72.005C230.006 73.0599 229.276 74.064 227.841 74.3847C226.854 74.6059 226.25 75.5237 225.628 76.3022C214.096 90.6471 202.565 104.992 191.036 119.337C178.406 135.053 165.775 150.769 153.142 166.487C152.921 166.757 152.777 167.113 152.212 167.263C153.182 162.619 154.372 158.173 157.697 154.672C160.463 151.762 163.309 148.922 166.14 146.078C166.952 145.26 167.623 144.386 167.848 143.227C167.89 143.006 167.924 142.723 168.07 142.603C169.787 141.221 170.09 139.158 170.706 137.242C170.88 136.737 171.226 136.308 171.684 136.03C172.807 135.274 173.871 134.435 174.869 133.52C177.055 131.441 176.745 127.829 174.151 126.297C171.007 124.435 167.718 122.84 164.051 122.227C163.108 122.068 162.127 121.944 161.224 122.196C157.599 123.212 154.109 124.629 151.143 126.958C147.883 129.524 147.058 133.761 148.742 138.169C149.081 139.054 149.014 139.609 148.372 140.301C146.932 141.849 145.591 143.504 144.201 145.105C143.978 145.388 143.715 145.636 143.419 145.841C140.491 147.624 138.601 150.265 137.165 153.297C135.852 155.982 134.719 158.752 133.774 161.588C133.051 159.837 131.679 158.992 130.278 158.182C127.385 156.513 124.349 155.128 121.292 153.792C120.548 153.467 120.365 153.129 120.436 152.29C120.657 149.844 120.055 147.462 119.55 145.083C119.521 144.95 119.475 144.823 119.413 144.702C117.997 141.911 115.44 141.739 112.787 141.88C110.222 142.015 108.431 143.369 107.843 145.565C107.528 146.733 107.289 147.922 107.017 149.103L106.769 149.079Z" fill="#FDC201"/>
<path d="M210.217 133.841C212.788 130.423 215.357 127.006 217.926 123.59C226.04 112.826 234.156 102.063 242.271 91.2994C243.212 90.0542 244.062 88.8068 243.998 87.1591C243.982 86.7168 244.283 86.416 244.533 86.0976C245.952 84.2884 247.432 82.5235 248.769 80.6547C249.433 79.7412 249.812 79.9204 250.513 80.5507C260.439 89.4814 268.208 99.9779 273.698 112.158C278.304 122.367 280.9 133.069 281.679 144.227C281.717 144.762 282.19 145.602 281.396 145.865C280.537 146.151 280.269 145.237 280.006 144.678C278.162 140.757 275.009 138.908 270.821 137.999C261.617 136.005 252.317 134.482 242.957 133.438C236.539 132.717 230.121 132.208 223.659 132.155C219.145 132.116 214.668 132.432 210.217 133.841Z" fill="#FDC201"/>
</g>
<defs>
<clipPath id="clip0_31_226">
<rect width="326" height="349" fill="white"/>
</clipPath>
</defs>
</svg>
