<svg width="152" height="163" viewBox="0 0 152 163" fill="none" xmlns="http://www.w3.org/2000/svg">
<g clip-path="url(#clip0_9_27)">
<path d="M11.1478 135.234C8.38647 135.482 6.09563 135.606 4.27535 135.606C3.06182 135.606 2.17025 135.321 1.60064 134.751C1.03102 134.181 0.746216 133.288 0.746216 132.073V126.124C0.746216 124.822 1.03722 123.88 1.61921 123.297C2.21359 122.702 3.16088 122.405 4.46109 122.405H11.1478V125.008H5.20406C4.46109 125.008 4.0896 125.38 4.0896 126.124V132.073C4.0896 132.358 4.17009 132.588 4.33107 132.761C4.50443 132.922 4.72113 133.003 4.98117 133.003C5.24121 133.003 5.52602 133.003 5.83559 133.003C6.14516 132.991 6.46712 132.978 6.80146 132.966C7.13579 132.953 7.47013 132.941 7.80447 132.929C8.15119 132.916 8.59078 132.891 9.12325 132.854C9.66809 132.817 10.3429 132.774 11.1478 132.724V135.234ZM18.9512 135.42H15.6078V125.008H11.7072V122.405H22.8518V125.008H18.9512V135.42ZM24.1542 122.405H31.9554C33.2556 122.405 34.1967 122.702 34.7787 123.297C35.3731 123.88 35.6703 124.822 35.6703 126.124V127.983C35.6703 129.284 35.3731 130.233 34.7787 130.828C34.1967 131.41 33.2556 131.702 31.9554 131.702H27.4976V135.42H24.1542V122.405ZM32.3269 126.124C32.3269 125.38 31.9554 125.008 31.2124 125.008H27.4976V129.098H31.2124C31.9554 129.098 32.3269 128.727 32.3269 127.983V126.124ZM45.6997 125.938C45.6997 125.194 45.3282 124.822 44.5852 124.822H41.4276C40.6846 124.822 40.3131 125.194 40.3131 125.938V131.887C40.3131 132.631 40.6846 133.003 41.4276 133.003H44.5852C45.3282 133.003 45.6997 132.631 45.6997 131.887V125.938ZM49.0431 131.887C49.0431 133.189 48.7459 134.137 48.1515 134.732C47.5695 135.315 46.6284 135.606 45.3282 135.606H40.6846C39.3844 135.606 38.4371 135.315 37.8428 134.732C37.2608 134.137 36.9698 133.189 36.9698 131.887V125.938C36.9698 124.636 37.2608 123.694 37.8428 123.111C38.4371 122.516 39.3844 122.219 40.6846 122.219H45.3282C46.6284 122.219 47.5695 122.516 48.1515 123.111C48.7459 123.694 49.0431 124.636 49.0431 125.938V131.887ZM58.8962 135.42V127.425L54.4384 135.42H50.9093V122.405H54.2527V130.4L58.7105 122.405H62.2396V135.42H58.8962ZM55.5529 121.475C53.9431 121.475 53.1382 120.67 53.1382 119.058V118.5H55.5529V118.965C55.5529 119.151 55.6148 119.306 55.7386 119.43C55.8624 119.554 56.0172 119.616 56.203 119.616H56.7602C56.9459 119.616 57.1007 119.554 57.2246 119.43C57.3484 119.306 57.4103 119.151 57.4103 118.965V118.5H59.825V119.058C59.825 120.67 59.0201 121.475 57.4103 121.475H55.5529ZM70.7925 135.42H67.4491V125.008H63.5485V122.405H74.6931V125.008H70.7925V135.42ZM86.3042 135.42H75.9955V122.405H86.3042V125.008H79.3389V127.518H84.8183V130.121H79.3389V132.817H86.3042V135.42ZM95.3085 122.405H99.0233L94.8441 128.913L99.1162 135.42H95.4013L92.8009 131.33L90.2005 135.42H86.4856L90.7577 128.913L86.5785 122.405H90.2748L92.8009 126.495L95.3085 122.405ZM111.378 135.42H108.035V130.121H103.391V135.42H100.048V122.405H103.391V127.518H108.035V122.405H111.378V135.42ZM124.946 135.42H121.603V127.425L117.145 135.42H113.616V122.405H116.96V130.4L121.417 122.405H124.946V135.42ZM136.657 122.219C136.966 122.219 137.523 122.281 138.328 122.405V124.915H137.585C137.4 124.915 137.232 124.977 137.084 125.101C136.935 125.212 136.824 125.336 136.749 125.473L134.985 128.82L138.607 135.42H135.078L132.199 130.121H130.527V135.42H127.184V122.405H130.527V127.518H132.199L134.056 123.985C134.329 123.465 134.663 123.043 135.059 122.721C135.468 122.386 136 122.219 136.657 122.219ZM142.04 135.42H138.418L143.34 122.405H147.055L151.977 135.42H148.355L147.519 133.096H142.876L142.04 135.42ZM143.712 130.679H146.684L145.198 126.31L143.712 130.679Z" fill="black"/>
<path d="M37.938 144.634C38.2476 144.634 38.8048 144.696 39.6097 144.82V147.33H38.8667C38.681 147.33 38.5138 147.392 38.3652 147.516C38.2166 147.628 38.1052 147.752 38.0309 147.888L36.2663 151.235L39.8883 157.835H36.3592L33.4802 152.536H31.8085V157.835H28.4651V144.82H31.8085V149.933H33.4802L35.3376 146.4C35.61 145.88 35.9444 145.458 36.3406 145.136C36.7492 144.801 37.2817 144.634 37.938 144.634ZM49.3576 148.353C49.3576 147.609 48.9861 147.237 48.2431 147.237H45.0855C44.3425 147.237 43.9711 147.609 43.9711 148.353V154.303C43.9711 155.046 44.3425 155.418 45.0855 155.418H48.2431C48.9861 155.418 49.3576 155.046 49.3576 154.303V148.353ZM52.701 154.303C52.701 155.604 52.4038 156.552 51.8094 157.147C51.2274 157.73 50.2863 158.021 48.9861 158.021H44.3425C43.0423 158.021 42.095 157.73 41.5007 157.147C40.9187 156.552 40.6277 155.604 40.6277 154.303V148.353C40.6277 147.051 40.9187 146.109 41.5007 145.527C42.095 144.932 43.0423 144.634 44.3425 144.634H48.9861C50.2863 144.634 51.2274 144.932 51.8094 145.527C52.4038 146.109 52.701 147.051 52.701 148.353V154.303ZM58.4677 155.139C58.4058 156.032 58.121 156.738 57.6133 157.259C57.1056 157.767 56.4802 158.021 55.7373 158.021C54.9943 158.021 54.2947 157.959 53.6384 157.835V155.325H54.4742C54.7095 155.325 54.9014 155.245 55.05 155.083C55.211 154.922 55.2977 154.724 55.3101 154.488L55.8673 144.82H66.176V157.835H62.8327V147.423H58.9321L58.4677 155.139ZM76.7656 148.353C76.7656 147.609 76.3941 147.237 75.6511 147.237H72.4935C71.7505 147.237 71.379 147.609 71.379 148.353V154.303C71.379 155.046 71.7505 155.418 72.4935 155.418H75.6511C76.3941 155.418 76.7656 155.046 76.7656 154.303V148.353ZM80.109 154.303C80.109 155.604 79.8118 156.552 79.2174 157.147C78.6354 157.73 77.6943 158.021 76.3941 158.021H71.7505C70.4503 158.021 69.503 157.73 68.9086 157.147C68.3266 156.552 68.0357 155.604 68.0357 154.303V148.353C68.0357 147.051 68.3266 146.109 68.9086 145.527C69.503 144.932 70.4503 144.634 71.7505 144.634H76.3941C77.6943 144.634 78.6354 144.932 79.2174 145.527C79.8118 146.109 80.109 147.051 80.109 148.353V154.303ZM93.1198 150.584L90.5194 155.232H87.919L85.3186 150.584V157.835H81.9752V144.82H85.5043L89.2192 151.699L92.934 144.82H96.4632V157.835H93.1198V150.584ZM110.029 157.835H106.686V152.536H102.043V157.835H98.6993V144.82H102.043V149.933H106.686V144.82H110.029V157.835ZM114.589 157.835H110.967L115.889 144.82H119.604L124.527 157.835H120.905L120.069 155.511H115.425L114.589 157.835ZM116.261 153.094H119.233L117.747 148.725L116.261 153.094Z" fill="black"/>
<path d="M101.645 100.859C110.076 100.653 118.451 100.491 126.823 100.398C128.971 100.374 131.117 100.398 133.265 100.375C133.633 100.375 133.822 100.424 133.84 100.864C133.903 102.413 133.781 103.941 133.221 105.397C132.213 108.021 130.235 109.46 127.502 109.833C125.787 110.066 124.06 109.966 122.352 109.636C121.06 109.386 120.082 108.683 119.372 107.591C118.935 106.923 118.55 106.222 118.22 105.494C118.085 105.194 117.93 105.056 117.563 105.071C113.063 105.254 108.562 105.405 104.062 105.587C102.318 105.657 102.317 105.681 102.215 107.401C102.136 108.737 101.877 110.028 101.264 111.223C101.017 111.713 100.687 112.157 100.29 112.535C99.7521 113.044 99.1629 113.355 98.3745 113.307C97.4074 113.253 96.4381 113.25 95.4707 113.298C94.5482 113.339 93.8372 112.958 93.2366 112.324C91.9849 111.003 91.276 109.402 90.9551 107.631C90.8612 107.114 90.6981 106.857 90.1399 106.953C89.8943 106.994 89.6353 106.961 89.3835 106.961C88.4207 106.961 88.4321 106.961 88.3351 105.976C88.2907 105.521 88.4991 104.898 88.1762 104.657C87.8748 104.431 87.2908 104.573 86.8347 104.568C86.2031 104.56 85.5706 104.596 84.9411 104.556C84.5108 104.528 84.4066 104.696 84.3963 105.087C84.3869 105.805 84.2307 106.513 83.9371 107.168C83.6131 107.873 83.1353 108.304 82.2788 108.257C81.5038 108.213 80.7217 108.266 79.9446 108.301C79.2006 108.335 78.5722 108.094 78.0934 107.537C78.0044 107.423 77.8889 107.333 77.757 107.274C77.6251 107.215 77.4809 107.191 77.337 107.201C76.7488 107.207 76.1596 107.144 75.5714 107.149C74.7387 107.155 74.1897 106.727 73.78 106.057C73.2641 105.216 73.035 104.282 72.9019 103.316C72.8833 103.182 72.9452 102.936 72.7667 102.948C72.1021 102.995 72.2961 102.515 72.2755 102.187C72.2084 101.135 72.1568 100.084 72.1073 99.0312C72.0918 98.6975 72.0309 98.4496 71.5996 98.5302C71.2828 98.5891 70.9072 98.5095 70.9856 99.0611C71.0305 99.4815 70.9977 99.9066 70.8886 100.315C70.8288 100.576 70.7565 100.78 70.416 100.79C70.0755 100.801 69.9 100.687 69.8309 100.365C69.7618 100.042 69.6844 99.7522 69.6245 99.4444C69.5647 99.1365 69.6854 98.7678 69.2437 98.6077C69.0879 98.5519 69.1509 98.2978 69.1406 98.1387C69.058 96.1182 68.9249 94.0999 68.9445 92.0763C68.9488 91.9766 68.9729 91.8788 69.0151 91.7885C69.0573 91.6981 69.117 91.6171 69.1906 91.5499C69.2643 91.4827 69.3504 91.4307 69.4442 91.3969C69.5379 91.3633 69.6375 91.3484 69.737 91.3532C69.8588 91.3625 69.8887 91.4255 69.8887 91.4947C69.8887 92.0339 70.1838 91.8976 70.5078 91.7953C72.8303 91.0661 75.1552 90.3454 77.4825 89.6334C77.756 89.5507 77.8292 89.4268 77.8437 89.152C77.9469 87.1956 77.9469 87.1956 76.0296 87.3082C75.5993 87.334 75.107 87.4755 75.1607 86.7359C75.1762 86.52 74.9419 86.5882 74.814 86.5779C74.2475 86.5314 73.6789 86.4829 73.1134 86.4674C72.7904 86.4581 72.6759 86.3351 72.6707 86.0139C72.6367 84.1184 72.5675 82.2219 72.6635 80.3265C72.6888 79.8427 72.8727 79.3809 73.1867 79.0125C84.4056 65.0518 95.6152 51.0828 106.816 37.1056C107.044 36.8205 107.261 36.614 107.641 36.6842C107.928 36.7358 108.098 36.5892 108.26 36.3681C109.411 34.8373 110.552 33.2992 111.744 31.8014C112.092 31.3645 111.905 31.2509 111.553 31.0381C107.37 28.5053 102.913 26.6088 98.1382 25.5913C83.7947 22.5379 70.7318 25.392 59.2012 34.5026C50.8634 41.0918 45.58 49.7149 43.1489 60.0744C43.0343 60.5619 43.5245 61.1951 44.122 61.2685C44.9733 61.3718 45.5924 61.8882 46.162 62.4378C46.5686 62.8334 46.548 63.4211 46.4468 63.9356C46.2807 64.7857 46.3849 65.5883 46.6212 66.4064C47.2032 68.4248 47.7326 70.4576 48.2991 72.5411C48.5736 72.2033 48.8574 71.9275 49.2939 71.8914C49.4926 71.8665 49.6944 71.887 49.8839 71.9514C50.0736 72.0158 50.2462 72.1224 50.3887 72.2632C50.4381 72.3037 50.4976 72.3298 50.5607 72.3385C50.624 72.3473 50.6884 72.3384 50.7468 72.3128C51.2246 72.1713 51.6755 72.3128 52.0883 72.4925C52.5764 72.6991 52.6775 72.507 52.6713 72.0732C52.6651 71.6796 52.8354 71.2396 52.2183 71.1001C52.0119 71.0526 52.0315 70.7489 52.0274 70.5392C52.016 69.9194 52.1987 69.3307 52.3452 68.7419C52.4556 68.2967 52.8829 68.432 53.1996 68.432C53.4401 68.432 53.7001 68.4217 53.7321 68.8039C53.7775 69.3472 53.8962 69.8843 53.956 70.4277C53.9911 70.7458 53.956 71.0288 53.6031 71.2282C53.1718 71.4751 53.4999 71.9131 53.439 72.2612C53.3586 72.7115 53.5422 72.9202 54.0014 73.1102C55.9775 73.9366 57.9423 74.7867 59.7946 75.8682C60.0071 75.9932 60.585 76.0882 60.0175 76.5417C59.938 76.6047 59.9948 76.864 60.0175 77.0282C60.3002 79.1127 60.5964 81.1962 60.8647 83.2838C60.907 83.6123 61.0019 83.7342 61.329 83.6577C61.4944 83.6254 61.6621 83.6061 61.8305 83.5999C63.4692 83.4718 63.4723 83.4728 63.7674 81.8718C63.9851 80.6932 64.2029 79.5146 64.4041 78.3329C64.4691 77.9538 64.5733 77.5902 64.3639 77.1811C64.1915 76.8444 64.3793 76.4333 64.4867 76.0748C64.9504 74.5668 65.573 73.1125 66.3441 71.7364C66.7496 70.9662 67.3741 70.3336 68.1386 69.9184C68.3212 69.815 68.4823 69.6775 68.6133 69.5135C69.738 68.2037 70.8546 66.8867 72.002 65.5976C72.2538 65.3146 72.2353 65.1358 72.0402 64.8487C71.6636 64.2961 71.289 63.7434 71.1837 63.0452C71.0351 62.0576 71.3365 61.2323 72.1991 60.7158C73.1445 60.1696 74.1329 59.7018 75.1545 59.3172C75.6509 59.121 76.1575 59.2201 76.6446 59.3492C77.8065 59.6591 78.8735 60.1859 79.9993 60.8129C79.6474 61.0898 79.3719 61.3914 79.0304 61.5629C78.0067 62.0793 77.5857 62.9945 77.3277 64.013C77.2029 64.4975 77.0243 64.92 76.6198 65.2319C76.3103 65.4726 76.1039 65.768 76.1472 66.1957C76.1771 66.4849 75.9522 66.644 75.7767 66.8227C74.7851 67.8277 73.8399 68.8813 72.7956 69.8275C70.675 71.7498 69.5554 74.1917 68.9837 76.9249C68.0193 81.4592 67.6063 86.0936 67.7537 90.7273C67.893 94.7692 67.9374 98.8153 68.0426 102.859C68.0529 103.249 67.9611 103.463 67.5659 103.493C66.6526 103.56 66.018 103.975 65.5413 104.797C65.1677 105.448 64.4815 105.799 63.7334 105.965C62.6055 106.216 61.4725 106.258 60.3673 105.896C58.4923 105.277 57.6585 103.782 57.2798 101.995C57.1488 101.375 56.9176 101.181 56.3428 101.306C56.3219 101.307 56.3008 101.307 56.2799 101.306C55.3398 101.354 55.3512 101.354 55.3192 102.299C55.2593 104.062 54.957 105.771 54.1397 107.361C52.5774 110.395 49.4848 112.082 46.1269 111.745C42.5338 111.384 40.0181 109.231 39.0646 105.683C38.8345 104.829 38.6332 103.958 38.6632 103.072C38.6848 102.42 38.4465 102.289 37.8655 102.43C37.3519 102.561 36.8139 102.564 36.2991 102.437C35.746 102.292 35.6139 102.525 35.521 103.027C34.9751 105.967 32.5955 108.483 29.8558 108.977C26.1461 109.645 22.6449 107.992 21.5902 103.651C20.6915 99.9505 22.1289 96.2133 25.1545 94.4159C26.5455 93.5896 28.0717 93.2601 29.6691 93.1971C29.945 93.1982 30.2207 93.182 30.4946 93.1485C29.148 92.5871 27.686 92.3595 26.2328 92.4853C25.9604 92.505 25.688 92.5318 25.4155 92.5411C25.2711 92.5411 25.0864 92.5411 25.0502 92.3697C25.0079 92.1631 25.2236 92.1569 25.3443 92.1052C26.8612 91.4472 28.4339 91.0175 30.1014 91.0196C30.5853 91.0061 31.0695 91.0226 31.5513 91.0692C31.9238 91.1146 31.964 90.9783 31.9537 90.6612C31.899 89.3979 31.8928 88.1325 31.8134 86.8723C31.7783 86.3176 32.0084 86.0531 32.4944 85.9137C33.2429 85.6962 34.0195 85.5917 34.7987 85.6038C35.3559 85.6131 35.4065 85.421 35.2321 84.9562C35.003 84.3477 34.8245 83.7166 34.6325 83.0968C34.5293 82.7663 34.3292 82.4306 34.713 82.1207C34.8327 82.0236 34.7306 81.8439 34.6955 81.7075C34.2889 80.0719 33.8826 78.4372 33.4768 76.8031C33.451 76.6998 33.4479 76.5624 33.3798 76.5076C32.5739 75.8579 32.7441 74.8632 32.4996 74.0203C32.2946 73.2719 32.0451 72.5365 31.7525 71.818C31.1426 70.3843 30.2696 69.2728 28.7806 68.5787C26.7673 67.6397 24.848 66.4973 22.8987 65.4271C22.5891 65.2588 22.3941 65.2092 22.0959 65.4995C21.5799 65.9984 20.8297 65.9405 20.2498 65.484C20.0548 65.3311 20.0857 65.1741 20.1105 64.983C20.1899 64.3994 19.9423 63.95 19.4913 63.6143C18.5327 62.9067 17.572 62.4977 16.2976 62.9842C14.2059 63.7827 12.0482 64.4097 9.83785 65.1358C9.98954 64.0791 10.1319 63.0885 10.2898 61.9905C9.293 62.3737 8.37254 62.7022 7.47478 63.0823C7.10226 63.2393 6.94644 63.1722 6.77205 62.8107C5.2751 59.7118 3.76164 56.6192 2.23166 53.5327C2.04592 53.1598 2.16562 53.041 2.45145 52.8623C3.41113 52.2591 3.40494 52.2498 2.7827 51.3015C2.56393 50.9668 2.33898 50.6363 2.1264 50.2985C2.04076 50.1601 1.81683 50.0134 2.09751 49.8481C2.30389 49.7263 2.47312 49.5383 2.74142 49.811C3.22332 50.3109 3.76404 50.752 4.24904 51.2478C4.4905 51.4947 4.67315 51.5029 4.94558 51.3118C5.37485 51.0102 5.82373 50.7334 6.27674 50.4689C6.50995 50.3326 6.544 50.2231 6.37993 49.9897C5.99399 49.4401 5.63592 48.8689 5.27475 48.3018C5.18807 48.1644 4.96519 48.0136 5.26445 47.8576C5.45432 47.7543 5.60703 47.5374 5.85985 47.7926C6.35103 48.2843 6.87937 48.7388 7.36643 49.2325C7.61099 49.4804 7.80293 49.5558 8.10837 49.3182C8.64909 48.8968 9.61599 48.6985 9.71505 48.1417C9.80173 47.6542 9.07425 47.0364 8.74713 46.4539C8.63878 46.2607 8.23839 46.0934 8.56241 45.7835C8.77395 45.5769 8.98859 45.5139 9.24966 45.7835C9.7326 46.2814 10.264 46.7328 10.7562 47.2234C10.9626 47.43 11.1112 47.4393 11.3465 47.2782C11.8315 46.9455 12.3299 46.6295 12.8397 46.3371C13.1173 46.177 13.1699 46.052 12.9687 45.7742C12.5869 45.2463 12.2463 44.6906 11.8913 44.1421C11.7964 43.9954 11.6169 43.8405 11.8913 43.6814C12.0853 43.5699 12.2391 43.386 12.4868 43.6349C12.9903 44.1431 13.5331 44.6121 14.0408 45.1162C14.2472 45.3228 14.4123 45.362 14.6713 45.1854C15.243 44.7949 15.8312 44.4251 16.4255 44.076C16.7 43.9159 16.7021 43.7857 16.5287 43.542C16.1634 43.0255 15.8209 42.4977 15.4886 41.9615C15.3988 41.8169 15.1264 41.6692 15.4339 41.4451C15.6846 41.2622 15.8621 41.193 16.1201 41.4647C16.5845 41.9523 17.1107 42.3789 17.5803 42.8612C17.8207 43.1092 17.993 43.1061 18.2644 42.916C18.7615 42.5637 19.2783 42.2401 19.8123 41.9471C20.2013 41.7405 20.1538 41.5463 19.9392 41.2395C19.5171 40.6394 19.1281 40.0165 18.7401 39.4236C19.1219 38.9629 19.4119 39.0631 19.7823 39.438C20.2983 39.9545 20.7781 40.8015 21.421 40.8232C22.0123 40.8439 22.6304 40.1559 23.2341 39.7779C23.9564 39.3234 23.9564 39.3224 23.4859 38.6034C23.2207 38.1985 22.9472 37.7998 22.6934 37.3887C22.6005 37.2389 22.3404 37.0788 22.6717 36.8846C22.8966 36.7524 23.0545 36.6181 23.3094 36.8846C23.8027 37.4011 24.3537 37.8638 24.8624 38.3679C25.0461 38.5487 25.2009 38.6003 25.3918 38.4185C26.693 37.179 28.2997 37.2182 29.9322 37.3071C32.8979 37.4692 35.8461 37.7202 38.691 38.6633C39.1193 38.8059 39.2544 38.9732 39.2256 39.4525C38.8984 44.9199 38.6064 50.3884 38.2906 55.8558C38.2691 56.0293 38.295 56.2056 38.3655 56.3656C38.4359 56.5257 38.5484 56.6636 38.691 56.7648C39.4722 57.4011 40.2224 58.0756 41.0376 58.7791C41.4503 57.3185 41.8373 55.9095 42.312 54.5264C47.8967 38.276 61.9182 26.0572 78.8033 22.9366C90.953 20.692 102.38 22.7786 112.975 29.2004C113.397 29.4566 113.572 29.3853 113.849 29.0176C116.635 25.3217 119.446 21.6423 122.243 17.9526C122.505 17.6066 122.759 17.3091 123.24 17.2812C123.585 17.2605 123.834 17.0571 124.065 16.7802C125.923 14.5707 127.903 12.4604 129.627 10.1548C132.114 6.83182 134.918 3.77944 137.485 0.5308C137.831 0.0938608 138.181 -0.0600463 138.712 0.0205241C140.363 0.270498 141.97 0.640295 143.32 1.72696C143.676 2.01412 143.759 2.30335 143.696 2.75992C143.38 5.0541 143.057 7.35243 143.465 9.67244C143.494 9.86097 143.464 10.0539 143.38 10.2251C143.062 10.942 143.094 11.6971 143.108 12.4542C143.156 14.9612 143.211 17.4671 143.226 19.9741C143.226 20.3873 143.36 20.5939 143.742 20.6755C144.205 20.7695 144.335 21.0422 144.361 21.5184C144.472 23.5791 143.948 25.5789 143.845 27.6128C143.795 28.591 143.442 29.1271 142.457 29.1881C142.088 29.2118 141.981 29.3946 141.967 29.7572C141.941 30.4162 141.693 31.0236 141.396 31.6093C141.225 31.9481 141.064 32.2962 141.096 32.6898C141.121 32.9842 141.139 33.3488 141.521 33.3508C141.831 33.3508 141.941 33.0503 141.98 32.761C142.043 32.1958 142.207 31.6465 142.465 31.1393C142.636 30.816 142.798 30.4534 143.255 30.6228C143.693 30.7829 143.744 31.1393 143.614 31.5525C143.389 32.2652 143.567 33.0224 143.378 33.7434C143.282 34.1528 143.128 34.5461 142.919 34.9106C142.326 35.8899 141.481 36.2793 140.546 36.0138C139.429 35.7039 138.916 34.9902 138.932 33.7661C138.947 32.542 139.419 31.4771 139.932 30.4121C140.044 30.2115 140.137 30.0005 140.209 29.782C140.443 28.8782 140.177 28.6024 139.29 28.7976C138.402 28.9928 138.41 28.9897 138.291 28.1179C138.038 26.2586 137.802 24.3993 137.526 22.5513C137.475 22.2022 137.526 21.9316 137.749 21.6867C138.328 21.067 138.472 20.3367 138.452 19.4938C138.41 17.2616 138.411 15.0263 138.484 12.7951C138.509 12.0638 138.226 11.6588 137.616 11.5297C136.791 11.351 136.557 10.8924 136.647 10.1187C136.684 9.79949 136.609 9.46791 136.575 9.00618L133.975 11.8417C133.819 12.0121 133.69 12.2641 133.497 12.3365C132.31 12.7724 131.718 13.8425 130.94 14.704C129.655 16.1243 128.421 17.5911 127.153 19.0269C126.929 19.281 126.777 19.531 126.874 19.8718C126.977 20.2437 126.721 20.4606 126.531 20.6982C123.627 24.412 120.717 28.121 117.8 31.8252C117.482 32.228 117.563 32.3809 117.922 32.6753C127.394 40.4431 133.252 50.3388 135.303 62.445C136.335 68.5394 136.148 74.608 134.817 80.6405C134.691 81.2076 134.915 81.722 134.956 82.2622C134.979 82.5556 135.015 82.8489 135.066 83.1382C135.118 83.4274 135.044 83.541 134.731 83.5916C134.132 83.6949 133.575 83.9087 133.125 84.4624C133.801 84.5048 134.404 84.387 134.998 84.5554C135.462 84.6865 135.703 84.89 135.687 85.4282C135.668 86.2498 135.693 87.0717 135.762 87.8908C135.794 88.3225 135.645 88.4785 135.232 88.5519C134.542 88.6748 133.848 88.6552 133.156 88.6717C132.802 88.681 132.692 88.8111 132.664 89.1499C132.629 89.5838 132.917 89.4991 133.151 89.5135C133.906 89.56 134.665 89.5879 135.421 89.652C135.584 89.6654 135.937 89.4888 135.89 89.84C135.851 90.1426 135.936 90.6167 135.393 90.6426C135.268 90.6488 135.141 90.6426 135.015 90.6426C123.226 90.5633 111.44 90.4825 99.653 90.3998C97.486 90.3833 95.319 90.3048 93.152 90.2707C90.8292 90.2335 89.7467 90.9669 88.9532 93.1247C88.8097 93.5121 88.6746 93.7125 88.1865 93.7187C86.9482 93.7352 86.3404 94.6804 86.6881 95.9798C86.7738 96.3031 86.7428 96.4891 86.5344 96.7535C86.037 97.3877 86.0628 98.1222 86.3043 98.8556C86.5034 99.4629 85.8915 100.359 85.2538 100.372C84.8544 100.381 84.453 100.401 84.0547 100.381C83.6564 100.362 83.3623 100.411 83.4108 100.889C83.4531 101.32 83.4449 101.886 84.03 101.904C85.5654 101.951 87.103 101.916 88.6395 101.919C89.0419 101.919 88.9171 101.622 88.9181 101.423C88.9336 99.1841 89.1245 96.9663 89.692 94.793C89.845 94.1816 90.0734 93.5917 90.3721 93.0369C91.1904 91.5547 92.5525 91.0475 94.1303 91.0526C97.2456 91.0619 100.36 91.1208 103.475 91.1704C114.145 91.3429 124.817 91.2809 135.489 91.377C136.212 91.3832 137.028 92.538 136.775 93.2022C136.694 93.4171 136.487 93.3272 136.339 93.3313C135.392 93.3623 134.445 93.4016 133.499 93.3871C133.094 93.3809 132.947 93.5152 132.901 93.9036C132.798 94.7382 132.666 95.5677 132.55 96.361C133.801 96.361 135.041 96.394 136.276 96.3455C136.822 96.3238 136.974 96.4922 136.923 97.0066C136.869 97.5516 136.845 98.0992 136.854 98.6469C136.854 99.0518 136.665 99.1809 136.296 99.2491C134.193 99.6396 132.066 99.6355 129.943 99.6334C129.633 99.6334 129.516 99.5063 129.53 99.2357C129.543 98.8928 129.373 98.837 129.07 98.838C124.523 98.8559 119.977 98.8683 115.43 98.8752C115.248 98.8752 114.97 98.7626 114.957 99.1107C114.934 99.6468 114.581 99.6272 114.177 99.6406C110.204 99.7687 106.232 99.9205 102.302 100.624C102.067 100.65 101.842 100.731 101.645 100.859ZM42.1531 92.379C42.2088 92.4027 42.2666 92.4523 42.3202 92.4471C43.5358 92.3215 44.763 92.3671 45.966 92.5824C46.1858 92.6238 46.3787 92.5422 46.5851 92.4915C49.8872 91.6652 52.6868 92.4915 54.9745 95.0316C55.0715 95.1349 55.1097 95.3415 55.378 95.3146C54.8053 93.7197 53.7053 92.6486 52.2472 91.9255C50.1834 90.9029 47.9885 90.6859 45.7317 90.9793C44.4243 91.1508 43.1881 91.533 42.1531 92.4048L42.1851 92.3831L42.1531 92.379ZM48.7108 108.435L48.6159 108.313C50.2071 107.205 50.8964 105.598 51.0141 103.738C51.1379 101.795 50.7241 99.9577 49.1927 98.6376C47.842 97.4724 47.616 97.616 46.5665 98.8163C44.7308 100.913 44.5719 104.683 46.1404 107.098C47.8131 109.674 50.7561 109.68 52.4082 107.081C53.4029 105.521 53.6465 103.794 53.3678 101.99C53.1388 100.491 52.5516 99.1644 51.3422 98.1872C50.4651 97.4786 49.5116 97.2824 48.5282 97.5892C49.9729 98.0023 50.8913 98.963 51.4629 100.275C52.2286 102.038 52.2627 103.831 51.5527 105.612C51.0182 106.954 50.1741 108.017 48.7108 108.435ZM91.7775 67.1656C92.6113 67.114 93.3078 67.1129 93.993 67.0189C94.9403 66.8888 95.8236 66.6688 96.6223 66.0025C97.9638 64.8817 99.5818 64.2733 101.338 64.0688C102.636 63.9332 103.941 63.8873 105.245 63.9314C109.839 64.0347 114.392 64.5739 118.925 65.2743C121.562 65.6813 124.188 66.1492 126.768 66.8671C127.064 66.9387 127.343 67.0693 127.588 67.2512C127.833 67.4331 128.038 67.6626 128.193 67.9259C128.606 68.6303 129.058 69.3183 129.457 70.0331C129.61 70.3058 129.748 70.4297 130.082 70.3946C131.159 70.2831 131.21 70.3378 131.351 71.4389C131.377 71.6055 131.388 71.7743 131.383 71.943C131.295 73.3553 131.632 74.7616 132.351 75.9798C132.415 76.0831 132.455 76.2122 132.505 76.3258C132.618 76.5582 132.641 76.9353 133.01 76.8495C133.304 76.7814 133.216 76.4364 133.247 76.2143C133.84 71.5226 133.771 66.8444 132.911 62.1888C130.827 50.9111 125.281 41.6919 116.428 34.4396C116.144 34.2072 115.982 34.139 115.712 34.4943C114.411 36.2008 113.078 37.8845 111.749 39.5692C111.571 39.7954 111.432 40.0062 111.523 40.3088C111.646 40.7158 111.456 41.0205 111.214 41.3418C106.68 47.357 102.15 53.3753 97.6243 59.3968L91.7775 67.1656ZM131.094 76.6688C130.02 74.3694 129.147 72.1238 127.942 70.0258C127.785 69.7542 127.585 69.5094 127.408 69.246C127.308 69.0969 127.179 68.9701 127.03 68.8735C126.879 68.777 126.711 68.7128 126.535 68.6851C124.904 68.3835 123.278 68.0488 121.642 67.773C117.059 67.0058 112.44 66.4741 107.802 66.1802C105.789 66.05 103.778 65.9447 101.719 66.0108C102.28 68.7119 103.06 71.3222 103.848 73.9304C103.929 74.1969 104.097 74.2145 104.319 74.2403C107.482 74.5281 110.644 74.8198 113.804 75.1152C117.762 75.4788 121.72 75.8403 125.678 76.1998C127.433 76.3548 129.192 76.5035 131.091 76.6698L131.094 76.6688ZM33.2405 52.8076C34.2125 51.9977 34.8637 51.0763 35.3827 50.0609C36.9357 47.023 37.4589 43.7403 37.6736 40.3822C37.7025 39.9401 37.4393 39.9132 37.1576 39.8543C34.4272 39.2841 31.6596 39.2273 28.8064 39.2273C30.442 43.7134 32.0713 48.1355 33.2384 52.8127L33.2405 52.8076ZM39.4319 82.7632H39.5351C39.5651 82.1331 39.5785 81.503 39.6311 80.875C39.6579 80.5506 39.6497 80.3585 39.2514 80.2438C38.7292 80.092 38.4919 79.4557 38.6673 78.9433C38.8551 78.3948 39.2864 78.4207 39.6992 78.5684C40.0573 78.6965 39.9892 78.4444 40.0015 78.2895C40.0697 77.4714 40.1305 76.6522 40.178 75.8331C40.1829 75.5713 40.2489 75.3143 40.371 75.0827C40.4929 74.8511 40.6676 74.6513 40.8807 74.4996C41.2357 74.2279 41.6547 73.9831 41.7558 73.4325C41.8445 72.945 42.5163 72.7343 42.8589 73.1226C43.2613 73.5782 43.6421 73.3168 44.0394 73.3013C44.2623 73.2921 44.3562 73.2084 44.2912 72.9346C43.8506 71.095 43.3625 69.277 42.4946 67.5778C42.0127 66.6409 41.1366 66.1719 40.3741 65.5583C40.2606 65.4674 40.1367 65.5036 40.0139 65.5346C38.4506 65.9395 36.8893 66.3527 35.3208 66.7421C35.0484 66.8092 34.9762 66.9074 35.0463 67.1708C35.5017 68.8744 35.9516 70.5791 36.3961 72.2849C36.4373 72.4461 36.4735 72.5679 36.6705 72.5452C37.0193 72.5039 37.1432 72.7632 37.267 73.0059C37.4715 73.4431 37.6106 73.9081 37.6798 74.3859C37.8438 75.2867 37.6024 76.2256 37.8087 77.0871C38.2638 79.0022 38.8757 80.8781 39.4257 82.7694L39.4319 82.7632ZM43.6628 85.3456V85.3321C44.6503 85.3321 45.6389 85.3125 46.6254 85.3414C47.0288 85.3528 47.0722 85.2082 46.9876 84.8714C46.7451 83.8943 46.5211 82.9088 46.2879 81.9327C46.2105 81.6115 46.1641 81.2788 46.4881 81.0805C46.7822 80.9008 46.7193 80.7045 46.647 80.4442C46.1816 78.7667 45.7183 77.0892 45.287 75.4024C45.1941 75.0388 45.06 74.9282 44.6947 74.9685C43.7133 75.0718 42.7278 75.1483 41.7455 75.2371C41.2367 75.2825 41.0355 75.5759 41.0035 76.0748C40.8178 79.0359 40.6197 81.9939 40.4091 84.9489C40.3823 85.3228 40.5278 85.3549 40.8219 85.3507C41.7692 85.3487 42.7155 85.3569 43.6607 85.3569L43.6628 85.3456ZM122.281 93.8055V93.7807C119.734 93.7807 117.189 93.7745 114.645 93.7807C114.232 93.7807 113.613 93.5741 113.464 93.8736C113.271 94.2476 113.682 94.7207 113.901 95.1225C114.356 95.9581 114.967 96.3775 116.017 96.362C120.414 96.3166 124.813 96.3703 129.211 96.3878C130.19 96.3878 130.471 96.2205 130.828 95.326C130.96 94.9965 131.021 94.6401 131.13 94.3002C131.267 93.8674 131.09 93.7838 130.681 93.7838C127.877 93.8251 125.077 93.8168 122.279 93.8168L122.281 93.8055ZM25.9274 101.439C25.9274 101.586 25.9191 101.733 25.9274 101.881C26.0471 103.844 27.1378 105.365 28.7455 105.815C31.1406 106.484 33.5336 104.794 33.8689 102.199C34.0216 101.018 34.0206 101.034 32.8442 100.993C32.2664 100.973 31.7845 100.993 31.3469 101.509C30.8795 102.059 30.1086 102.076 29.5638 101.723C28.9591 101.328 28.6134 100.47 28.762 99.7294C28.9271 98.9031 29.3657 98.4744 30.2552 98.3587C30.542 98.3215 30.6442 98.2089 30.7041 97.9455C30.9734 96.7783 30.8723 96.6512 29.6639 96.7246C29.4965 96.7367 29.3304 96.7633 29.1675 96.8041C27.2317 97.269 25.9108 99.1541 25.9274 101.439ZM38.1916 91.6476H38.0358C37.9697 90.281 37.9057 88.9155 37.8294 87.5489C37.8201 87.366 37.9047 87.1109 37.5477 87.114C36.2454 87.1243 34.9411 87.0654 33.6481 87.302C33.3777 87.3516 33.2704 87.4466 33.2807 87.7513C33.3661 90.3172 33.4376 92.8837 33.4954 95.451C33.5036 95.7846 33.612 95.8745 33.9329 95.8765C35.1939 95.8879 36.4559 95.9065 37.7159 95.9643C38.1637 95.985 38.2112 95.8259 38.2009 95.4324C38.173 94.1711 38.1916 92.9099 38.1916 91.6476ZM86.8605 79.1231C88.0709 77.9062 89.1627 76.802 90.2658 75.7071C90.9179 75.0594 91.5041 74.326 92.3874 73.9573C92.6185 73.8612 92.6536 73.6701 92.665 73.4408C92.7269 72.1806 92.7857 70.9204 92.8713 69.6622C92.894 69.3379 92.795 69.2697 92.4968 69.2924C91.827 69.3451 91.1553 69.3957 90.4835 69.3957C90.3501 69.3922 90.218 69.4236 90.1004 69.4869C89.9827 69.5501 89.8837 69.6429 89.8128 69.7562C88.8624 71.0392 87.8975 72.3107 86.9399 73.5875C86.8295 73.7362 86.6954 73.8695 86.7026 74.0843C86.7573 75.7081 86.8048 77.3195 86.8605 79.1231ZM120.044 84.4345C118.31 84.3591 115.284 84.2279 112.258 84.0905C111.797 84.0688 111.452 84.1401 111.445 84.6917C111.437 85.3115 111.782 85.8331 112.205 85.8486C118.071 86.0552 123.937 86.2504 129.802 86.5045C130.572 86.5376 130.852 86.1823 131.067 85.6059C131.266 85.0718 131.127 84.8828 130.543 84.856C127.479 84.731 124.41 84.6091 120.044 84.4345ZM88.011 91.5516C88.0575 91.4978 88.0998 91.471 88.106 91.4369C88.1318 91.314 88.1473 91.188 88.1617 91.063C88.3567 89.4629 89.2235 88.4093 90.7415 87.8815C91.22 87.7214 91.7144 87.614 92.2161 87.5613C92.4379 87.5344 92.5927 87.4962 92.5896 87.1925C92.5772 85.7608 92.5896 84.3291 92.5989 82.8985C92.5989 82.7312 92.6237 82.5711 92.3451 82.5886C91.1718 82.6826 89.9933 82.7291 88.8221 82.8417C87.9739 82.9233 87.6138 83.2466 87.4899 84.0998C87.202 86.0821 87.0318 88.0757 87.3238 90.0734C87.4033 90.6178 87.4796 91.2014 88.0152 91.5516H88.011ZM100.148 67.0933C99.2888 67.5158 98.4911 67.931 97.6718 68.2998C97.2198 68.5064 97.1001 68.746 97.0836 69.279C97.0537 70.2583 97.6666 71.3449 96.7493 72.2291C96.6873 72.2891 96.7369 72.4719 96.7493 72.5969C96.8039 73.542 96.8803 74.4861 96.9092 75.4323C96.9236 75.9034 97.0826 75.9343 97.484 75.7887C98.487 75.422 99.4931 75.0512 100.523 74.7754C101.178 74.6008 101.348 74.3622 101.217 73.6608C100.808 71.503 100.502 69.3234 100.148 67.0933ZM110.246 88.9392C110.086 88.2337 109.621 88.056 109.04 88.0096C108.244 87.9393 107.452 87.834 106.659 87.7493C106.213 87.7017 105.954 87.5427 105.924 87.0148C105.867 85.987 105.748 84.9623 105.615 83.9397C105.56 83.5049 105.769 83.3551 106.131 83.3427C106.666 83.3241 107.202 83.3427 107.782 83.3427C107.754 83.2788 107.719 83.2182 107.678 83.1619C106.615 82.1445 104.162 81.974 102.954 82.8314C102.53 83.133 102.301 83.5286 102.335 84.0627C102.421 85.5542 102.51 87.0448 102.58 88.5364C102.594 88.8463 102.683 88.9392 102.992 88.8587C104.128 88.5632 105.284 88.6293 106.44 88.7058C107.694 88.7853 108.951 88.8587 110.246 88.9413V88.9392ZM112.166 96.8496C111.898 95.8042 111.65 94.8105 111.388 93.8189C111.34 93.634 111.285 93.477 111.02 93.4821C108.921 93.5227 106.822 93.554 104.725 93.5761C104.496 93.5761 104.369 93.6361 104.388 93.8964C104.45 94.775 104.507 95.6548 104.559 96.5356C104.572 96.7649 104.653 96.8558 104.902 96.8547C107.31 96.8475 109.725 96.8516 112.166 96.8516V96.8496ZM121.463 87.3609V87.3764C118.645 87.2979 115.825 87.2318 113.008 87.1336C112.45 87.114 112.448 87.3195 112.661 87.7069C112.923 88.1841 113.294 88.4372 113.873 88.4486C117.913 88.526 121.951 88.6283 125.991 88.7182C127.19 88.745 128.389 88.7616 129.588 88.776C129.931 88.776 130.38 88.212 130.33 87.7968C130.279 87.3815 129.923 87.6026 129.729 87.5964C126.973 87.5044 124.218 87.4425 121.463 87.3629V87.3609ZM66.0304 96.5955C66.0036 95.704 65.9726 94.7764 65.8065 93.8633C65.6641 93.0783 65.5031 92.2901 65.0449 91.6125C64.8158 91.2716 64.4815 91.0051 64.1038 91.3481C63.3722 92.0123 63.2989 92.977 63.0719 93.8685C62.9512 94.3467 63.4929 94.3188 63.626 94.607C63.6952 94.7578 63.8324 94.8787 63.8964 95.0305C64.5155 96.4385 64.5155 97.8774 63.6178 99.1097C63.1472 99.7511 63.2391 100.236 63.4589 100.809C63.6487 101.307 63.8025 101.984 64.4485 101.976C65.0944 101.968 65.2482 101.299 65.4298 100.796C65.9179 99.4547 65.9891 98.0447 66.0304 96.5975V96.5955ZM53.048 83.5803C52.759 80.6136 52.4701 77.6697 52.1935 74.7248C52.1677 74.4531 52.0903 74.3663 51.8107 74.3911C50.9749 74.4644 50.1369 74.5285 49.299 74.5595C48.911 74.5729 48.8677 74.6772 48.9719 75.0419C49.4652 76.7741 49.9337 78.5136 50.3898 80.2572C50.5187 80.7531 50.656 81.1518 51.2008 81.3935C51.886 81.7034 52.2802 82.3655 52.66 83.0018C52.7735 83.2074 52.8178 83.4418 53.048 83.5865V83.5803ZM55.6731 84.7165C55.7761 84.707 55.8797 84.707 55.9827 84.7165C56.5905 84.8343 56.7412 84.638 56.6844 83.9934C56.478 81.7096 56.3552 79.4185 56.2066 77.1295C56.1406 76.1172 56.1437 76.1296 55.1747 75.8527C54.7898 75.7432 54.5473 75.7257 54.5886 76.2401C54.6092 76.4973 54.5391 76.7938 54.3347 76.927C53.8384 77.2514 53.9509 77.6924 53.9994 78.1469C54.1954 79.9866 54.3915 81.8273 54.569 83.6701C54.6701 84.6979 54.6546 84.699 55.6731 84.7268V84.7165ZM43.3047 63.5007C43.0612 62.8448 43.1912 62.2777 42.7361 61.881C40.7989 60.1966 38.8651 58.5095 36.9347 56.8195C36.8315 56.7328 36.7067 56.5252 36.5756 56.6646C36.2547 57.0055 35.6263 57.0592 35.6252 57.7151C35.6252 57.9785 35.5148 58.2492 35.4188 58.5033C35.2537 58.9423 35.3373 59.2026 35.7986 59.4267C36.7407 59.8843 37.6457 60.4194 38.5672 60.9214L43.3047 63.5007ZM91.7868 102.007C91.7951 103.471 91.8848 104.625 92.115 105.76C92.3028 106.69 92.5019 107.619 93.0437 108.415C93.2397 108.703 93.5328 109.002 93.8578 108.651C94.4017 108.065 94.3738 107.267 94.5317 106.531C94.6276 106.07 94.2448 106.045 94.0859 105.82C93.9963 105.703 93.9169 105.58 93.8486 105.45C93.2944 104.267 93.1974 103.028 93.4358 101.758C93.476 101.538 93.5462 101.234 93.7041 101.138C94.2087 100.84 94.0539 100.485 93.895 100.098C93.7608 99.7697 93.6504 99.4289 93.4884 99.1138C93.3378 98.8194 93.1788 98.461 92.7795 98.4837C92.3389 98.5095 92.245 98.9279 92.1377 99.2522C91.8074 100.251 91.8002 101.284 91.7868 102.007ZM25.8479 59.9432C27.0418 60.7324 28.1986 61.3955 29.2326 62.2157C30.1613 62.9501 31.058 63.1195 32.0992 62.5907L32.2117 62.5338C31.9093 62.1775 31.6864 61.7798 31.9712 61.3367C32.3056 60.8202 32.2261 60.3429 31.8226 59.969C31.3304 59.5145 30.9466 58.7842 30.0622 59.0569C29.6195 59.1933 29.1645 59.3482 28.7032 59.2873C27.6816 59.153 26.8623 59.718 25.8448 59.9463L25.8479 59.9432ZM142.498 8.38125C142.459 7.00497 142.49 5.6276 142.593 4.2546C142.686 3.1638 142.497 2.8818 141.509 2.42834C141.083 2.24773 140.637 2.1224 140.18 2.05544C139.974 2.01929 139.83 2.02342 139.827 2.31368C139.811 3.8063 139.75 5.29788 139.894 6.7874C139.915 7.00845 139.925 7.23054 140.203 7.34829C140.952 7.66334 141.686 8.01352 142.498 8.38125ZM57.5099 76.6564C57.5099 76.863 57.4975 77.0696 57.5099 77.2761C57.6596 79.3524 57.8061 81.4286 57.9691 83.5038C58.0723 84.8074 58.0847 84.7826 59.3921 84.794C59.8678 84.7991 59.8699 84.6297 59.8214 84.2413C59.5751 82.3028 59.3485 80.3616 59.1414 78.4176C58.9866 76.9528 59.0041 76.9508 57.5842 76.6419C57.5589 76.6433 57.534 76.6481 57.5099 76.6564ZM29.2357 63.4284C29.1696 63.1619 28.9385 63.1123 28.7754 63.0028C27.63 62.2302 26.4763 61.4699 25.3247 60.7065C24.363 60.0682 23.6231 60.3688 23.3641 61.504C23.2795 61.8717 23.2279 62.2498 23.1061 62.6041C23.0029 62.9057 23.1144 63.0038 23.3734 63.1009C24.2938 63.4428 25.2091 63.8002 26.1214 64.1638C26.2948 64.2374 26.489 64.2459 26.6683 64.1876C27.5134 63.9325 28.3688 63.6846 29.2295 63.4284H29.2357ZM56.3666 88.4568C57.5337 88.5405 58.6048 88.5952 59.6687 88.7068C60.0371 88.745 60.2218 88.6541 60.2992 88.306C60.4653 87.5623 60.9338 87.1284 61.6572 86.9126C62.0346 86.7839 62.4011 86.625 62.753 86.4374C62.9842 86.3238 63.269 86.2866 63.4692 86.0242C62.5487 86.1038 61.6902 86.174 60.8306 86.2504C59.9514 86.3289 59.0702 86.3971 58.1941 86.5035C57.8639 86.5438 57.4573 86.4188 57.2406 86.8299C56.964 87.3485 56.6844 87.8608 56.3604 88.4568H56.3666ZM84.5377 77.1584L84.2848 77.1315C83.5181 78.1542 82.7576 79.1809 81.9806 80.1963C81.7113 80.5485 81.703 80.9514 81.9311 81.2489C82.285 81.7106 82.7463 82.0918 83.1693 82.4998C83.2189 82.5483 83.2725 82.6227 83.3809 82.5814C83.5573 82.5173 84.5356 81.4183 84.5356 81.2293C84.5346 79.872 84.5325 78.5157 84.5325 77.1584H84.5377ZM76.1678 64.2671C76.3949 63.5379 76.5713 62.8716 76.9253 62.2694C77.2792 61.6672 77.759 61.2024 78.3029 60.7592C77.338 60.2624 76.5755 60.0227 75.9295 60.001C74.8449 59.9649 74.2898 60.6208 74.5137 61.6879C74.7242 62.7208 75.3619 63.4893 76.1627 64.2671H76.1678ZM92.5948 77.5726L92.3884 77.4548L88.9656 81.1869C90.0387 81.1032 91.2007 81.0092 92.3626 80.9266C92.569 80.9121 92.5938 80.8068 92.5938 80.6415C92.5948 79.6179 92.5948 78.5952 92.5948 77.5726ZM141.902 12.5999C141.598 12.9159 141.173 12.7672 141.179 13.3302C141.212 15.5562 141.179 17.7822 141.16 20.0092C141.16 20.3109 141.152 20.5102 141.573 20.5081C142.036 20.5081 141.944 20.2282 141.942 19.97C141.93 18.2057 141.916 16.4414 141.902 14.6771C141.896 14.0326 141.899 13.387 141.899 12.6009L141.902 12.5999ZM94.897 74.3632H94.9455C94.9455 74.7609 94.9382 75.1596 94.9455 75.5583C94.9692 76.6233 94.963 76.5913 96.0187 76.2814C96.4314 76.1564 96.5202 75.9715 96.4851 75.5749C96.417 74.7816 96.4015 73.9841 96.3633 73.1877C96.3158 72.2095 96.3148 72.224 95.318 72.2023C94.9971 72.1951 94.8712 72.256 94.8877 72.6041C94.9145 73.1877 94.8939 73.7765 94.8939 74.3643L94.897 74.3632ZM138.922 12.1743V20.4586C139.414 20.3553 139.659 20.1487 139.644 19.5444C139.584 17.3205 139.583 15.0944 139.594 12.8695C139.592 12.4232 139.457 12.2094 138.918 12.1753L138.922 12.1743ZM77.8829 101.284C77.9262 102.467 77.9788 103.581 78.3906 104.638C78.4742 104.852 78.5608 105.095 78.8085 105.155C79.0149 105.207 79.1181 105.011 79.1624 104.863C79.2409 104.603 79.5205 104.332 79.2316 104.057C78.8818 103.721 78.825 103.275 78.7683 102.847C78.6465 101.93 78.4587 100.943 78.9406 100.128C79.2171 99.6571 79.1593 99.3607 78.987 98.9692C78.8952 98.7626 78.8106 98.4816 78.5381 98.5116C78.2822 98.5395 78.2213 98.8215 78.1491 99.0374C77.8994 99.7966 77.918 100.58 77.8829 101.284ZM140.726 20.2241C140.726 17.8214 140.713 15.4456 140.739 13.0709C140.739 12.6298 140.467 12.5658 140.203 12.5544C139.859 12.5451 140.025 12.8643 140.025 13.0337C140.025 15.1574 140.049 17.2812 140.032 19.4039C140.029 19.8873 140.153 20.1673 140.726 20.2282V20.2241ZM33.7017 64.4324C34.1764 64.669 34.3632 65.2443 34.7945 65.1555C35.974 64.9262 37.1308 64.5791 38.3402 64.2671C37.9687 63.8891 37.6571 63.5782 37.3547 63.261C37.2206 63.1216 37.1019 63.1051 36.912 63.1815C35.8894 63.5967 34.8585 63.9862 33.7017 64.4324ZM73.7263 101.402C73.747 102.223 73.7707 103.044 74.0411 103.832C74.1154 104.05 74.1897 104.295 74.4456 104.357C74.6107 104.397 74.717 104.237 74.7655 104.109C74.8573 103.864 75.0751 103.604 74.8924 103.341C74.0524 102.139 74.1391 100.917 74.814 99.7005C74.9956 99.3731 74.7645 99.1944 74.6881 98.9578C74.6417 98.8122 74.5209 98.6862 74.3548 98.7316C74.1226 98.7946 74.072 99.0208 74.0029 99.2192C73.7552 99.9267 73.7573 100.664 73.7263 101.402ZM142.746 11.916C142.408 12.1402 142.23 12.3137 142.23 12.6598C142.236 15.1389 142.23 17.6241 142.224 20.1063C142.224 20.2799 142.155 20.4865 142.471 20.4988C142.788 20.5112 142.792 20.3377 142.789 20.1063C142.771 18.718 142.758 17.3298 142.75 15.9415C142.74 14.6265 142.746 13.3116 142.746 11.916ZM72.6975 66.0428L70.0827 69.2625C71.3519 69.2181 72.1465 68.5498 72.8492 67.6635C73.552 66.7772 73.6077 66.801 72.6965 66.0459L72.6975 66.0428ZM137.965 10.3862C138.519 10.9533 138.946 10.9967 139.387 10.6042C139.87 10.1724 139.948 9.33879 139.552 8.83368C139.216 8.40397 138.804 8.36059 138.228 8.73038C138.763 8.85331 139.01 9.18075 138.928 9.69C138.848 10.1776 138.515 10.3976 137.964 10.3893L137.965 10.3862ZM31.8959 65.7794C31.77 65.5139 31.6514 65.2691 31.5368 65.0233C31.4646 64.8673 31.4058 64.7268 31.1736 64.7774C30.4409 64.9396 29.7031 65.0873 28.9674 65.234C29.9054 65.6472 30.7443 66.4849 31.8959 65.7794ZM34.7048 77.5953L34.5696 77.6501C34.9514 78.8896 35.3507 80.1292 35.7047 81.3687C35.8161 81.7643 36.0008 81.9079 36.427 81.8294L34.7048 77.5953ZM46.8648 77.772L46.7358 77.8112C46.9545 78.6975 47.1774 79.5827 47.3869 80.47C47.4333 80.6684 47.5551 80.6911 47.7109 80.6704C48.0133 80.6301 47.8069 80.4504 47.7749 80.3605C47.4767 79.4887 47.1681 78.6334 46.8627 77.772H46.8648ZM55.411 95.4747C55.3986 95.4861 55.378 95.4954 55.377 95.5067C55.3759 95.5181 55.3914 95.5336 55.4007 95.5481C55.4131 95.5367 55.4327 95.5274 55.4348 95.515C55.4368 95.5026 55.4172 95.4881 55.409 95.4747H55.411Z" fill="#020202"/>
<path d="M49.782 69.6271C49.3692 68.1087 48.9565 66.5903 48.5499 65.0687C48.5302 64.9232 48.5382 64.7752 48.5736 64.6328C48.9255 62.2343 48.3074 60.9049 46.1765 59.7242C45.6543 59.435 45.6069 59.1706 45.7493 58.651C49.9316 43.3127 62.4363 31.2498 77.9809 27.7306C88.4927 25.3499 98.5537 26.6497 108.165 31.63C108.849 31.9832 108.846 31.9884 108.363 32.6237C108.108 32.9583 107.847 33.2889 107.599 33.6297C107.242 34.1225 106.901 34.5914 106.233 34.7412C105.773 34.8445 105.491 35.2732 105.201 35.6368C99.8237 42.3365 94.4474 49.0362 89.0719 55.736C83.1831 63.0761 77.2937 70.4166 71.4035 77.7575C71.3003 77.8835 71.2333 78.0498 70.9701 78.1201C71.4221 75.9509 71.9773 73.8746 73.5272 72.2395C74.8171 70.8801 76.1441 69.5538 77.4639 68.2254C77.8426 67.8432 78.1553 67.4352 78.2606 66.8939C78.2802 66.7906 78.2957 66.6584 78.3638 66.6026C79.1645 65.9571 79.3059 64.9933 79.5928 64.0988C79.6742 63.8625 79.8355 63.6622 80.0489 63.5327C80.5725 63.1795 81.0688 62.7877 81.5338 62.3603C82.5533 61.3893 82.4088 59.7025 81.1994 58.9867C79.7331 58.1169 78.1997 57.3722 76.4898 57.086C76.0502 57.0117 75.5931 56.9538 75.1721 57.0716C73.4818 57.5457 71.8545 58.2078 70.4717 59.2955C68.9517 60.4938 68.5668 62.4729 69.3521 64.5316C69.51 64.9448 69.479 65.204 69.1798 65.5273C68.508 66.2504 67.8827 67.0231 67.2346 67.7709C67.131 67.903 67.0082 68.0189 66.8704 68.1149C65.5052 68.9474 64.6239 70.1808 63.9542 71.597C63.3421 72.8513 62.8139 74.145 62.3733 75.4695C62.0359 74.6514 61.3961 74.2568 60.7429 73.8788C59.3942 73.0989 57.9784 72.4523 56.5534 71.8284C56.2066 71.6765 56.121 71.5185 56.154 71.127C56.2572 69.9845 55.9765 68.872 55.7412 67.7606C55.7277 67.6988 55.7062 67.6391 55.6773 67.5829C55.0168 66.2793 53.825 66.1988 52.5877 66.2649C51.3918 66.3279 50.5569 66.96 50.2825 67.9858C50.1359 68.5312 50.0245 69.0869 49.8976 69.6385L49.782 69.6271Z" fill="#FDC201"/>
<path d="M98.0154 62.5101C99.2138 60.9138 100.412 59.3178 101.61 57.7223C105.393 52.6953 109.177 47.6682 112.961 42.6412C113.399 42.0597 113.796 41.4771 113.766 40.7075C113.758 40.501 113.899 40.3605 114.015 40.2117C114.677 39.3668 115.367 38.5425 115.99 37.6696C116.3 37.243 116.477 37.3267 116.804 37.6211C121.432 41.7921 125.054 46.6945 127.614 52.383C129.761 57.1511 130.972 62.1496 131.335 67.3608C131.353 67.6108 131.573 68.0033 131.203 68.1262C130.802 68.2595 130.678 67.8329 130.555 67.5716C129.695 65.7401 128.225 64.8766 126.272 64.452C121.981 63.5207 117.645 62.8097 113.281 62.3221C110.288 61.9853 107.296 61.7478 104.282 61.723C102.178 61.7044 100.091 61.8521 98.0154 62.5101Z" fill="#FDC201"/>
</g>
<defs>
<clipPath id="clip0_9_27">
<rect width="152" height="163" fill="white"/>
</clipPath>
</defs>
</svg>
