<svg width="32" height="32" viewBox="0 0 32 32" fill="none" xmlns="http://www.w3.org/2000/svg">
<g clip-path="url(#clip0_49_73)">
<path d="M27.3369 4.65026C24.3287 1.65324 20.3287 0.00182855 16.067 0C7.28509 0 0.138374 7.113 0.134858 15.8559C0.133834 18.6506 0.867279 21.3786 2.26136 23.7833L0.00109863 32L8.44691 29.7951C10.7739 31.0586 13.3939 31.7244 16.0602 31.7255H16.0669H16.067C24.8475 31.7255 31.9953 24.6112 31.999 15.8687C32.0005 11.6315 30.3447 7.64748 27.3369 4.65026ZM16.067 29.0473H16.0618C13.6853 29.0461 11.3548 28.4108 9.32199 27.2099L8.83822 26.9244L3.8263 28.2327L5.16441 23.3694L4.84922 22.8708C3.52357 20.7722 2.82373 18.3471 2.82473 15.8569C2.82764 8.5901 8.76772 2.67822 16.072 2.67822C19.6092 2.67968 22.9336 4.05235 25.4339 6.54338C27.9341 9.03438 29.31 12.3458 29.3089 15.8676C29.3058 23.1347 23.3655 29.0473 16.067 29.0473Z" fill="#E0E0E0"/>
<path d="M0.732422 31.0883L2.88944 23.247C1.55869 20.9521 0.858887 18.3485 0.859727 15.682C0.863216 7.3386 7.68354 0.55072 16.0636 0.55072C20.1308 0.552549 23.9482 2.12844 26.8183 4.98863C29.6891 7.84879 31.269 11.6506 31.2674 15.6938C31.2639 24.0373 24.4432 30.8258 16.0642 30.8258C16.0646 30.8258 16.0636 30.8258 16.0642 30.8258H16.0574C13.513 30.825 11.0128 30.1891 8.79228 28.9842L0.732422 31.0883Z" fill="url(#paint0_linear_49_73)"/>
<path fill-rule="evenodd" clip-rule="evenodd" d="M12.13 9.1243C11.8352 8.47185 11.5249 8.45879 11.2445 8.44737C11.0151 8.43758 10.7525 8.43818 10.4904 8.43818C10.228 8.43818 9.80163 8.53635 9.44107 8.92839C9.0803 9.32043 8.0636 10.2682 8.0636 12.1957C8.0636 14.1234 9.47387 15.9861 9.67044 16.2477C9.86722 16.5089 12.3928 20.5909 16.3926 22.1613C19.7167 23.4664 20.3932 23.2068 21.1147 23.1415C21.8363 23.0761 23.4429 22.1939 23.7709 21.279C24.0988 20.3643 24.0988 19.5803 24.0004 19.4164C23.9021 19.2531 23.6397 19.1552 23.2461 18.9592C22.8526 18.7633 20.918 17.8154 20.5572 17.6848C20.1964 17.5542 19.934 17.4889 19.6717 17.8811C19.4093 18.2729 18.6556 19.1552 18.426 19.4164C18.1964 19.6782 17.9668 19.7109 17.5733 19.5149C17.1797 19.3184 15.9123 18.9051 14.4088 17.5705C13.239 16.5321 12.4492 15.2497 12.2196 14.8575C11.99 14.4656 12.195 14.2534 12.3924 14.0581C12.5691 13.8825 12.7859 13.6007 12.9827 13.3719C13.1791 13.1432 13.2447 12.9799 13.3759 12.7187C13.5071 12.457 13.4415 12.2283 13.3431 12.0324C13.2447 11.8365 12.4799 9.89898 12.13 9.1243Z" fill="white"/>
<path d="M27.2067 4.59988C24.233 1.63727 20.279 0.00484539 16.0662 0.00299072C7.38506 0.00299072 0.320393 7.03433 0.316903 15.6769C0.31588 18.4395 1.0409 21.1362 2.41898 23.5133L0.184692 31.6356L8.53356 29.4561C10.8339 30.705 13.4238 31.3632 16.0594 31.3642H16.0661H16.0662C24.7459 31.3642 31.8116 24.3316 31.8153 15.6895C31.8167 11.501 30.18 7.5627 27.2067 4.59988ZM16.0662 28.7169H16.0611C13.7118 28.7157 11.408 28.0877 9.39859 26.9006L8.92035 26.6184L3.96597 27.9116L5.28871 23.1041L4.97714 22.6113C3.6667 20.5368 2.9749 18.1395 2.97592 15.6779C2.97878 8.49453 8.85067 2.65052 16.0711 2.65052C19.5677 2.65196 22.854 4.00887 25.3256 6.47129C27.7971 8.93372 29.1571 12.2071 29.1561 15.6885C29.153 22.8721 23.2809 28.7169 16.0662 28.7169Z" fill="white"/>
</g>
<defs>
<linearGradient id="paint0_linear_49_73" x1="15.9999" y1="31.0883" x2="15.9999" y2="0.550771" gradientUnits="userSpaceOnUse">
<stop stop-color="#20B038"/>
<stop offset="1" stop-color="#60D66A"/>
</linearGradient>
<clipPath id="clip0_49_73">
<rect width="32" height="32" fill="white"/>
</clipPath>
</defs>
</svg>
